<svg width="40" height="44" viewBox="0 0 40 44" fill="none" xmlns="http://www.w3.org/2000/svg">
<path d="M20.7826 17.9026C20.7826 21.8157 18.4348 27.2939 18.4348 27.2939M19.2174 19.4678C19.2174 19.4678 21.5652 13.207 16.087 8.5113C10.6087 3.81565 2 5.38087 2 5.38087C2 5.38087 2 11.6417 6.69565 16.3374C11.3913 21.033 19.2174 19.4678 19.2174 19.4678ZM20.7826 16.3374C20.7826 16.3374 18.4348 10.0765 23.913 5.38087C29.3913 0.685217 38 2.25043 38 2.25043C38 2.25043 38 8.5113 33.3043 13.207C28.6087 17.9026 20.7826 16.3374 20.7826 16.3374ZM8.26087 27.2939H28.6087C28.6087 27.2939 30.1739 41.3809 18.4348 41.3809C6.69565 41.3809 8.26087 27.2939 8.26087 27.2939Z" stroke="#46281F" stroke-width="4" stroke-linecap="round" stroke-linejoin="round"/>
</svg>
