<svg width="48" height="48" viewBox="0 0 48 48" fill="none" xmlns="http://www.w3.org/2000/svg">
<rect width="48" height="48" rx="24" fill="#FFD100"/>
<path d="M28 22.27L23 19.38C22.6961 19.2046 22.3514 19.1121 22.0005 19.1121C21.6496 19.112 21.3049 19.2042 21.0009 19.3795C20.6969 19.5548 20.4444 19.807 20.2687 20.1107C20.093 20.4145 20.0004 20.7591 20 21.11V26.89C20.0004 27.2407 20.0929 27.5852 20.2685 27.8888C20.444 28.1925 20.6963 28.4446 21 28.62C21.304 28.7955 21.6489 28.8879 22 28.8879C22.3511 28.8879 22.696 28.7955 23 28.62L28 25.73C28.3031 25.5542 28.5547 25.3018 28.7295 24.9982C28.9044 24.6946 28.9965 24.3504 28.9965 24C28.9965 23.6496 28.9044 23.3054 28.7295 23.0018C28.5547 22.6982 28.3031 22.4458 28 22.27ZM27 24L22 26.89V21.11L27 24ZM24 14C22.0222 14 20.0888 14.5865 18.4443 15.6853C16.7998 16.7841 15.5181 18.3459 14.7612 20.1732C14.0043 22.0004 13.8063 24.0111 14.1922 25.9509C14.578 27.8907 15.5304 29.6725 16.9289 31.0711C18.3275 32.4696 20.1093 33.422 22.0491 33.8079C23.9889 34.1937 25.9996 33.9957 27.8268 33.2388C29.6541 32.4819 31.2159 31.2002 32.3147 29.5557C33.4135 27.9112 34 25.9778 34 24C34 22.6868 33.7413 21.3864 33.2388 20.1732C32.7363 18.9599 31.9997 17.8575 31.0711 16.9289C30.1425 16.0003 29.0401 15.2638 27.8268 14.7612C26.6136 14.2587 25.3132 14 24 14ZM24 32C22.4178 32 20.871 31.5308 19.5554 30.6518C18.2398 29.7727 17.2145 28.5233 16.609 27.0615C16.0035 25.5997 15.845 23.9911 16.1537 22.4393C16.4624 20.8874 17.2243 19.462 18.3432 18.3431C19.462 17.2243 20.8874 16.4624 22.4393 16.1537C23.9911 15.845 25.5997 16.0035 27.0615 16.609C28.5233 17.2145 29.7727 18.2398 30.6518 19.5554C31.5308 20.871 32 22.4177 32 24C32 26.1217 31.1572 28.1566 29.6569 29.6569C28.1566 31.1571 26.1217 32 24 32Z" fill="#46281F"/>
</svg>
