<svg width="41" height="40" viewBox="0 0 41 40" fill="none" xmlns="http://www.w3.org/2000/svg">
<path d="M39.1 16.16C38.538 15.4853 37.8348 14.9421 37.04 14.5689C36.2451 14.1957 35.3781 14.0015 34.5 14H25.38L26.5 11.14C26.9659 9.88773 27.121 8.54118 26.9521 7.21581C26.7832 5.89044 26.2954 4.62582 25.5304 3.53043C24.7654 2.43503 23.7461 1.54156 22.5599 0.926653C21.3737 0.311747 20.0561 -0.00624093 18.72 -3.28878e-05C18.3353 0.000769836 17.959 0.112518 17.6361 0.321813C17.3133 0.531108 17.0577 0.829067 16.9 1.17997L11.2 14H6.5C4.9087 14 3.38258 14.6321 2.25736 15.7573C1.13214 16.8825 0.5 18.4087 0.5 20V34C0.5 35.5913 1.13214 37.1174 2.25736 38.2426C3.38258 39.3678 4.9087 40 6.5 40H31.96C33.3636 39.9995 34.7227 39.5069 35.8006 38.608C36.8786 37.7091 37.6073 36.4607 37.86 35.08L40.4 21.08C40.5571 20.2147 40.5221 19.3255 40.2974 18.4753C40.0728 17.6251 39.664 16.8347 39.1 16.16ZM10.5 36H6.5C5.96957 36 5.46086 35.7893 5.08579 35.4142C4.71071 35.0391 4.5 34.5304 4.5 34V20C4.5 19.4695 4.71071 18.9608 5.08579 18.5858C5.46086 18.2107 5.96957 18 6.5 18H10.5V36ZM36.5 20.36L33.96 34.36C33.8748 34.8259 33.627 35.2464 33.2608 35.5468C32.8945 35.8471 32.4336 36.0077 31.96 36H14.5V16.42L19.94 4.17997C20.5 4.34322 21.02 4.62078 21.4673 4.99513C21.9146 5.36949 22.2794 5.8325 22.5388 6.35495C22.7981 6.8774 22.9464 7.44795 22.9741 8.03057C23.0019 8.61319 22.9085 9.19523 22.7 9.73997L21.64 12.6C21.4141 13.2045 21.3379 13.8547 21.4177 14.495C21.4976 15.1354 21.7312 15.7469 22.0987 16.2774C22.4661 16.808 22.9564 17.2417 23.5278 17.5416C24.0992 17.8416 24.7347 17.9988 25.38 18H34.5C34.7938 17.9995 35.0841 18.0638 35.3503 18.1882C35.6165 18.3126 35.852 18.4942 36.04 18.72C36.2327 18.9426 36.3738 19.2051 36.4533 19.4886C36.5328 19.772 36.5488 20.0696 36.5 20.36Z" fill="#46281F"/>
</svg>
