<svg width="39" height="40" viewBox="0 0 39 40" fill="none" xmlns="http://www.w3.org/2000/svg">
<path d="M28.5 6.00002C26.7391 5.99862 25.0109 6.47561 23.5 7.38002C22.4045 4.86559 20.4808 2.8023 18.0491 1.53373C15.6174 0.265156 12.8245 -0.132142 10.1355 0.407994C7.44654 0.94813 5.02372 2.3931 3.27051 4.50229C1.51731 6.61149 0.539534 9.2576 0.5 12V20C0.502872 22.8338 1.50849 25.5751 3.33877 27.7385C5.16905 29.9019 7.70588 31.3477 10.5 31.82V38C10.5 38.5305 10.7107 39.0392 11.0858 39.4142C11.4609 39.7893 11.9696 40 12.5 40C13.0304 40 13.5391 39.7893 13.9142 39.4142C14.2893 39.0392 14.5 38.5305 14.5 38V31.82C16.5375 31.4664 18.4511 30.5991 20.06 29.3C20.774 30.446 21.7128 31.4356 22.8196 32.2089C23.9264 32.9823 25.1784 33.5236 26.5 33.8V38C26.5 38.5305 26.7107 39.0392 27.0858 39.4142C27.4609 39.7893 27.9696 40 28.5 40C29.0304 40 29.5391 39.7893 29.9142 39.4142C30.2893 39.0392 30.5 38.5305 30.5 38V33.8C32.7587 33.339 34.7888 32.1117 36.2466 30.3258C37.7044 28.54 38.5005 26.3053 38.5 24V16C38.5 13.3479 37.4464 10.8043 35.5711 8.92895C33.6957 7.05359 31.1522 6.00002 28.5 6.00002ZM18.5 16V24C18.5191 24.3819 18.5592 24.7625 18.62 25.14C17.5504 26.4139 16.1102 27.3228 14.5 27.74V22C14.5 21.4696 14.2893 20.9609 13.9142 20.5858C13.5391 20.2107 13.0304 20 12.5 20C11.9696 20 11.4609 20.2107 11.0858 20.5858C10.7107 20.9609 10.5 21.4696 10.5 22V27.72C8.78705 27.2777 7.26901 26.2802 6.18338 24.8833C5.09774 23.4864 4.50574 21.7691 4.5 20V12C4.49478 10.4152 4.96043 8.86444 5.83787 7.54462C6.71531 6.2248 7.965 5.19533 9.42841 4.58683C10.8918 3.97833 12.503 3.8182 14.0575 4.12678C15.6121 4.43535 17.04 5.19871 18.16 6.32002C19.2427 7.41729 19.9798 8.80803 20.28 10.32C19.1239 11.9888 18.503 13.9699 18.5 16ZM34.5 24C34.4965 25.2379 34.1102 26.4444 33.3941 27.4541C32.678 28.4639 31.6671 29.2274 30.5 29.64V22C30.5 21.4696 30.2893 20.9609 29.9142 20.5858C29.5391 20.2107 29.0304 20 28.5 20C27.9696 20 27.4609 20.2107 27.0858 20.5858C26.7107 20.9609 26.5 21.4696 26.5 22V29.64C25.3329 29.2274 24.322 28.4639 23.6059 27.4541C22.8898 26.4444 22.5035 25.2379 22.5 24V16C22.5 14.4087 23.1321 12.8826 24.2574 11.7574C25.3826 10.6322 26.9087 10 28.5 10C30.0913 10 31.6174 10.6322 32.7426 11.7574C33.8679 12.8826 34.5 14.4087 34.5 16V24Z" fill="#46281F"/>
</svg>
