<svg width="630" height="541" viewBox="0 0 630 541" fill="none" xmlns="http://www.w3.org/2000/svg">
<g clip-path="url(#clip0_164_2456)">
<path d="M258.71 461.989L116.698 387.436L52.7573 254.984L57.0541 95.6016L73.3324 53.472L110.017 77.726L122.111 133.723L229.993 233.796L306.806 360.258L397.572 421.396L430.574 451.139L388.933 482.42L258.71 461.989Z" fill="#00AEEF"/>
<path d="M263.568 454.487L128.856 381.217L63.7402 249.222L61.7023 93.5897L73.3325 53.472L109.461 71.8245L124.824 127.09L235.106 226.432L311.664 352.756L402.48 414.077L435.637 443.591L394.046 475.056L263.568 454.487Z" fill="white"/>
<path d="M393.536 423.27L301.189 361.126L223.917 233.794L114.506 132.12L102.919 78.7309L82.8626 70.5835L75.3836 95.1939L77.5279 246.526L139.739 372.756L268.533 442.686L389.924 461.789L415.266 442.901L393.536 423.27Z" fill="white"/>
<path d="M82.8626 70.5835L75.3836 95.1939L77.5279 246.526L139.739 372.756L268.533 442.686L389.924 461.789L393.536 423.27L301.189 361.126L223.917 233.794L114.506 132.12L102.919 78.7309L82.8626 70.5835Z" fill="#FFD100"/>
<path d="M393.536 423.27L415.266 442.901L389.924 461.789L393.536 423.27Z" fill="#5B3429"/>
<path d="M359.57 437.673L200.606 363.803L157.339 286.206L161.936 284.011L204.439 360.418L361.922 433.648L359.57 437.673Z" fill="#5B3429"/>
<path d="M106.805 173.886L101.801 174.617C101.293 172.009 90.0712 111.346 89.5172 103.889L94.6231 103.524C95.0754 110.615 106.602 173.154 106.805 173.886Z" fill="#5B3429"/>
<path d="M208.713 172.856L106.981 201.837L89.3599 208.695L50.8743 248.99L51.6334 255.624L92.3408 239.713L119.531 261.814L157.836 248.968L163.325 222.664L168.33 221.156L195.273 236.121L219.736 228.121L224.611 203.51L208.713 172.856ZM108.178 230.338C108.024 230.567 107.666 230.841 107.258 230.932C107.054 230.978 106.645 231.07 106.39 230.932C105.88 230.658 105.472 229.971 105.779 229.514L118.156 207.695C118.463 207.238 119.229 206.872 119.74 207.147C120.25 207.421 120.658 208.108 120.351 208.565L108.178 230.338ZM117.915 244.293C117.711 244.339 117.251 244.247 116.996 244.11C116.486 243.835 116.078 243.149 116.589 242.646L141.087 201.204C141.394 200.747 142.16 200.381 142.721 200.839C143.231 201.113 143.639 201.799 143.128 202.303L118.63 243.744C118.681 243.927 118.324 244.202 117.915 244.293ZM150.158 217.446L136.295 244.068C136.142 244.297 135.784 244.571 135.376 244.663C135.171 244.708 134.763 244.8 134.508 244.663C133.793 244.434 133.59 243.702 133.897 243.244L147.76 216.622C148.015 215.982 148.833 215.799 149.343 216.074C150.262 216.257 150.465 216.989 150.158 217.446ZM170.744 207.204C170.54 207.249 170.131 207.341 169.876 207.203C169.162 206.974 168.958 206.242 169.265 205.785L177.195 189.821C177.451 189.181 178.268 188.998 178.778 189.272C179.493 189.501 179.696 190.233 179.389 190.691L171.459 206.655C171.306 206.883 170.948 207.158 170.744 207.204ZM183.445 218.552C183.292 218.78 182.934 219.055 182.526 219.146C182.322 219.192 181.913 219.283 181.658 219.146C180.943 218.917 180.74 218.185 181.047 217.728L197.775 185.022C198.031 184.382 198.848 184.199 199.358 184.473C200.073 184.702 200.276 185.434 199.969 185.892L183.445 218.552ZM213.893 200.854L202.738 224.732C202.636 225.143 202.227 225.235 201.819 225.326C201.614 225.372 201.41 225.418 200.951 225.326C200.236 225.097 200.033 224.365 200.339 223.908L211.494 200.03C211.75 199.39 212.567 199.207 213.077 199.482C213.792 199.71 214.148 200.214 213.893 200.854Z" fill="#5B3429"/>
</g>
<g clip-path="url(#clip1_164_2456)">
<path d="M260.273 229.688L318.827 203.142L326.634 129.224L569.802 47.0685L610.904 193.072L572.557 252.801C572.557 252.801 370.721 286.899 367.506 284.84C366.817 284.382 361.306 280.263 359.929 277.059C353.959 264.701 345.233 238.842 345.233 238.842L260.273 229.688Z" fill="white"/>
<path d="M260.273 229.688L314.234 190.784L322.041 116.867L569.802 47.0685L596.438 191.242L567.276 236.324C567.276 236.324 362.914 279.347 359.699 277.288C356.714 274.999 334.67 225.797 334.67 225.797L260.273 229.688Z" fill="#42AC49"/>
<path d="M377.15 86.4301L308.494 102.907L302.294 177.511L280.25 200.395" stroke="#5B3429" stroke-width="1.4714" stroke-miterlimit="10" stroke-linecap="round" stroke-linejoin="round"/>
<path d="M614.118 143.642L627.666 197.192L600.112 235.18" stroke="#5B3429" stroke-width="1.4714" stroke-miterlimit="10" stroke-linecap="round" stroke-linejoin="round"/>
<path d="M397.816 187.809C398.046 188.724 398.505 189.64 398.735 190.555C399.194 193.072 398.275 195.132 396.209 196.276C395.75 196.505 395.29 196.734 394.601 196.734C392.535 197.192 390.698 196.505 389.55 194.903C388.172 193.301 387.254 191.47 386.794 189.868C386.106 187.351 385.417 185.063 384.728 182.545L384.039 180.028C383.58 178.884 383.35 177.74 383.12 176.366L368.654 179.57C368.654 180.715 368.884 181.63 369.114 183.003C369.343 183.461 369.343 183.918 369.573 184.376C370.032 185.978 370.491 187.809 370.951 189.182C371.41 190.555 371.639 192.157 372.099 193.53C372.558 195.132 372.558 196.734 372.558 198.336C372.788 202.226 370.262 203.142 369.114 203.37H368.884C366.358 203.828 364.292 203.142 362.684 201.311C361.536 199.709 360.847 198.107 360.388 196.734C360.158 195.361 359.699 194.216 359.47 193.072C357.862 187.122 356.484 180.943 355.107 174.765C353.27 165.382 350.974 155.541 347.759 143.87C347.529 142.497 347.3 141.353 347.07 140.209C347.07 138.607 346.84 137.005 345.922 135.861C344.544 133.572 345.003 131.055 347.3 129.453C347.989 128.995 348.448 128.766 349.137 128.766C351.433 128.309 353.499 128.995 354.648 130.597C355.336 131.741 356.025 133.343 356.484 134.716C356.944 136.547 357.403 138.607 357.862 140.438C358.321 142.04 358.551 143.87 359.01 145.472C360.388 151.193 361.995 156.686 363.603 162.636L365.21 168.357C367.277 168.128 369.114 168.128 371.41 167.67C374.395 166.984 377.38 165.84 380.595 164.466C380.595 164.238 380.824 164.009 380.595 164.009C379.906 160.805 379.447 157.372 378.758 154.168C377.38 146.388 376.002 137.92 373.247 130.368C373.017 129.911 372.788 129.224 372.558 128.766L372.328 128.08C371.639 126.249 372.328 124.876 372.788 123.961C373.476 123.045 374.624 122.588 375.313 121.901C375.543 121.901 376.002 121.672 376.461 121.443C378.758 120.986 381.283 122.359 381.972 124.418C382.202 125.334 382.661 126.478 383.12 127.393C384.728 131.741 386.106 136.09 387.254 140.667C388.631 147.303 389.779 154.168 391.157 160.805C392.076 165.611 392.994 170.645 393.913 175.451C394.372 177.968 395.061 180.257 395.979 182.774C396.438 183.918 396.668 185.063 396.898 186.207C397.587 187.122 397.816 187.351 397.816 187.809Z" fill="white"/>
<path d="M423.304 119.384C423.534 121.215 422.845 122.359 422.156 123.045C421.467 123.961 420.319 124.647 418.712 125.105C414.349 126.249 409.986 127.165 405.394 128.538C404.016 128.767 402.868 128.995 401.72 129.453C402.638 136.09 404.246 142.497 405.623 148.905C406.083 151.193 406.771 153.711 407.231 155.999C408.149 156.228 409.297 155.999 410.445 155.77C411.593 155.542 412.512 155.313 413.66 154.855C414.808 154.397 415.956 154.168 417.104 153.94C418.482 153.711 419.86 153.482 421.008 153.711C421.697 153.711 422.386 154.168 422.615 155.084C423.763 157.83 424.223 159.661 423.534 161.034C422.845 163.093 421.008 164.009 419.171 164.695C417.334 165.382 415.267 165.84 413.43 166.297C412.742 166.526 412.282 166.755 411.593 166.755L409.756 167.213C410.216 170.874 411.134 174.307 412.053 177.968C412.282 179.342 412.742 180.486 412.971 181.63C413.43 181.63 413.66 181.63 413.89 181.401L414.578 181.172C417.564 180.028 420.778 178.884 423.993 178.197C425.371 177.968 426.748 177.74 428.356 177.511C431.8 177.282 433.407 178.884 434.096 180.486C434.785 182.088 435.015 183.69 434.555 185.063C433.867 186.207 432.948 187.351 431.341 187.809C424.682 189.868 418.252 191.699 412.742 193.301H412.512C411.364 193.53 410.216 193.53 408.838 193.53C405.623 193.072 403.786 191.47 403.097 188.495C402.409 185.749 401.949 182.774 401.26 179.799C400.572 176.367 399.883 172.705 398.964 169.043C398.505 167.213 398.046 165.382 397.587 163.551C397.127 161.492 396.438 159.203 395.979 157.143C395.061 153.482 394.372 149.82 393.683 146.159C393.224 143.413 392.765 140.438 392.076 137.692L389.32 125.105C389.091 124.19 389.55 123.274 390.468 122.817C390.928 122.588 391.157 122.359 391.616 122.13C392.305 121.672 393.453 120.986 394.372 120.757C400.342 118.926 406.542 117.095 412.512 115.265L413.43 115.036C414.349 114.807 415.497 114.578 416.645 114.349C420.319 114.12 422.845 116.18 423.304 119.384Z" fill="white"/>
<path d="M477.035 175.68C476.346 177.282 474.739 178.426 472.902 178.884C470.835 179.57 468.769 180.028 466.702 180.486C465.325 180.715 464.176 181.172 462.799 181.401L455.681 183.232L451.547 184.376H451.318C451.088 184.376 450.858 184.376 450.858 184.376C447.414 183.918 444.888 180.943 444.429 176.595C444.429 175.222 444.199 174.078 443.97 172.705C443.74 171.79 443.511 170.874 443.511 169.959C443.051 166.755 442.133 163.551 440.985 160.118C440.066 157.143 439.377 153.711 438.689 150.507C438.459 148.905 438 147.303 437.77 145.701C435.704 137.234 433.178 126.02 430.652 115.036C430.422 114.12 430.193 113.434 430.422 112.518C430.652 111.374 431.111 110.23 432.489 109.543C433.178 109.086 434.096 108.628 435.015 108.628C435.933 108.628 436.852 108.628 437.54 108.857C439.148 109.543 440.526 111.145 440.985 112.747C441.674 114.578 442.133 116.409 442.592 118.24L443.051 120.757C443.74 123.045 444.429 125.334 444.888 127.622C446.036 131.742 447.185 135.861 448.103 140.209C448.562 141.811 449.022 143.642 449.251 145.243C449.481 146.388 449.71 147.761 449.94 148.905C451.318 155.084 452.925 161.949 454.992 169.73C454.992 169.959 455.221 170.188 455.221 170.645C456.14 170.645 457.288 170.645 458.436 170.188C460.043 169.959 461.191 169.501 462.799 169.043L463.258 168.815C464.865 168.357 466.473 168.128 467.85 167.67L471.295 167.213C474.28 166.984 476.576 168.357 477.494 170.874C477.954 172.934 477.724 174.307 477.035 175.68Z" fill="white"/>
<path d="M517.219 166.984C516.53 168.586 514.923 169.73 513.086 170.188C511.019 170.874 508.952 171.332 506.886 171.79C505.508 172.018 504.36 172.476 502.982 172.705L495.864 174.536L491.731 175.68H491.501C491.272 175.68 491.042 175.68 491.042 175.68C487.598 175.222 485.072 172.247 484.613 167.899C484.613 166.526 484.383 165.382 484.153 164.009C483.924 163.093 483.694 162.178 483.694 161.263C483.235 158.059 482.316 154.855 481.168 151.422C480.25 148.447 479.561 145.015 478.872 141.811C478.643 140.209 478.183 138.607 477.954 137.005C475.887 128.538 473.361 117.324 470.835 106.34C470.606 105.424 470.376 104.738 470.606 103.822C470.835 102.678 471.295 101.534 472.672 100.847C473.361 100.39 474.28 99.9319 475.198 99.9319C476.117 99.9319 477.035 99.9319 477.724 100.161C479.331 100.847 480.709 102.449 481.168 104.051C481.857 105.882 482.317 107.713 482.776 109.543L483.235 112.061C483.924 114.349 484.613 116.638 485.072 118.926C486.22 123.045 487.368 127.165 488.287 131.513C488.746 133.115 489.205 134.945 489.435 136.547C489.664 137.691 489.894 139.065 490.124 140.209C491.501 146.388 493.109 153.253 495.175 161.034C495.175 161.263 495.405 161.492 495.405 161.949C496.323 161.949 497.471 161.949 498.62 161.492C500.227 161.263 501.375 160.805 502.982 160.347L503.442 160.118C505.049 159.661 506.656 159.432 508.034 158.974L511.478 158.517C514.463 158.288 516.76 159.661 517.678 162.178C518.137 164.238 517.908 165.611 517.219 166.984Z" fill="white"/>
<path d="M554.647 125.792C555.336 128.767 556.025 131.97 556.713 135.174C557.862 142.268 558.321 148.218 558.091 153.711C558.091 156.228 557.173 158.288 556.025 159.89C554.877 161.492 553.04 162.407 550.743 163.093C550.054 163.322 549.595 163.551 548.906 163.551C547.758 164.009 546.381 164.238 545.232 164.695C543.625 165.153 542.018 165.153 540.41 165.153C536.277 164.924 530.537 164.009 527.552 157.372L525.715 153.024C522.041 145.243 518.596 137.234 517.219 128.309C516.989 126.478 516.3 124.418 515.611 122.359L515.382 121.672C513.774 116.638 513.315 111.145 514.004 104.509C514.463 101.076 516.071 97.8723 518.596 94.8973C521.122 92.1512 524.337 90.3204 527.552 89.6339C528.011 89.6339 528.47 89.405 528.929 89.405L530.996 88.9473C532.144 88.7185 533.522 88.4896 534.67 88.4896C536.277 88.4896 537.655 88.7185 539.262 89.405C541.788 90.5492 544.544 92.38 545.692 95.5839C547.299 99.7031 549.136 104.051 550.743 108.628C551.662 111.603 552.351 114.578 553.04 117.553C553.269 118.926 553.728 120.07 553.958 121.443C554.188 121.672 554.188 122.13 553.958 122.588L554.647 125.792ZM528.7 129.453C529.159 134.03 531.226 138.149 533.063 142.497C534.211 145.243 535.359 147.99 536.507 150.736C536.966 152.338 538.114 153.253 539.722 153.482C540.87 153.711 542.018 153.711 542.936 153.482C545.692 152.795 547.069 150.507 546.84 147.303C546.84 147.074 546.84 146.617 546.84 146.388C545.921 139.293 544.773 132.199 543.625 125.105C543.395 124.876 543.166 124.418 543.166 124.19C542.936 123.503 542.707 122.817 542.477 122.13C541.788 120.299 541.329 118.468 541.099 116.409C540.64 111.603 538.573 107.484 536.277 103.136L535.588 101.763C535.129 101.076 534.44 100.161 533.522 99.7031C532.374 99.0165 531.226 98.7877 530.078 99.0165C528.7 99.2454 527.552 100.161 526.863 101.763C524.567 105.882 523.878 110.917 525.255 116.867C525.715 118.468 526.174 120.07 526.633 121.901C527.322 124.647 528.241 126.936 528.7 129.453Z" fill="white"/>
<path d="M412.971 240.444C412.741 241.817 412.282 243.19 411.593 244.334C409.068 248.453 405.394 250.971 401.031 251.886C400.572 251.886 400.112 252.115 399.653 252.572C399.653 252.572 399.423 252.572 399.423 252.801C398.735 252.801 398.505 253.03 398.046 253.03C396.209 253.488 394.601 252.344 393.913 250.284C393.453 248.224 392.994 246.165 392.535 244.105C392.076 242.045 391.616 239.986 391.157 237.926C390.698 235.638 390.009 233.121 389.32 230.832C388.861 229.23 388.402 227.399 387.942 225.569C387.942 225.111 387.713 224.653 387.713 223.967C387.713 223.509 387.483 223.051 387.483 222.822C387.254 221.907 387.024 220.763 386.794 219.847L386.335 217.33C386.335 216.872 386.105 216.644 386.105 216.186C386.105 215.957 386.105 215.728 386.105 215.499V214.813L386.794 214.355C388.402 213.44 390.009 212.982 391.616 212.524C394.142 212.067 396.668 211.838 399.883 212.524C401.49 212.753 403.327 213.897 404.475 215.499C405.853 217.101 406.542 218.932 406.771 220.763C407.001 222.822 407.231 225.111 406.312 227.399C406.312 227.628 406.082 228.086 406.082 228.544V228.772L407.69 229.459C409.986 230.603 411.823 232.663 412.741 235.638C412.971 237.697 412.971 239.071 412.971 240.444ZM398.046 218.703C396.209 218.246 394.601 218.017 392.994 218.246C393.453 222.365 394.601 226.255 395.75 230.603C395.75 231.061 395.979 231.519 395.979 231.976C396.209 231.976 396.438 231.976 396.438 231.747C398.046 230.374 398.964 229.001 399.653 227.399C400.342 225.797 400.572 224.196 400.342 222.365C400.112 220.534 399.653 219.161 398.046 218.703ZM398.964 244.105C398.964 244.792 399.194 245.478 399.423 246.165C401.949 245.478 403.327 244.563 404.705 242.961C406.082 241.13 407.46 238.613 405.164 236.095C404.705 235.638 404.016 235.18 403.327 234.951L402.868 234.722C402.868 234.494 402.638 234.722 402.638 234.722C401.949 235.409 401.26 236.096 400.342 236.782C399.423 237.24 398.735 237.697 397.816 237.926L397.357 238.155C397.357 239.071 397.816 239.986 398.275 241.13C398.505 241.359 398.505 241.588 398.505 242.045C398.735 242.732 398.964 243.419 398.964 244.105Z" fill="white"/>
<path d="M438.918 240.672C439.148 241.817 438.918 242.503 438.689 243.19C438.459 243.876 437.77 244.563 436.852 244.792H436.622C435.703 245.021 434.785 244.792 434.096 244.334C433.407 243.876 432.948 243.19 432.718 242.046C432.489 241.588 432.489 241.359 432.489 240.901C432.489 240.672 432.489 240.444 432.489 240.215C432.259 239.528 432.03 238.384 431.8 237.469C431.8 237.24 431.8 237.24 431.57 237.011C429.274 237.011 426.978 237.469 424.452 237.926L423.074 238.155C423.074 238.842 423.074 239.299 423.074 239.986C423.074 240.901 423.304 241.817 423.304 242.732C423.304 243.419 423.534 244.105 423.534 244.792C423.763 246.394 422.845 247.538 421.467 247.767C420.549 247.996 419.86 247.767 419.171 247.309C418.482 246.851 418.252 246.165 418.023 245.478C417.793 245.021 417.793 244.334 417.793 243.647C417.563 241.817 417.104 239.986 417.563 237.926C417.793 236.096 417.793 234.265 417.793 232.205C417.793 231.29 417.793 230.374 417.563 229.459C417.563 228.086 417.563 226.713 417.563 225.569C417.563 222.136 417.563 218.703 417.563 215.271C417.563 214.813 417.563 214.126 417.563 213.669C417.563 212.524 417.793 211.38 417.563 210.236C417.334 209.092 417.563 208.405 418.252 207.719C418.712 207.261 419.4 206.803 420.549 206.574H421.008C423.074 206.117 423.993 207.032 424.682 208.634L426.748 213.211C427.437 215.042 428.356 216.872 429.044 218.703C429.504 219.39 429.733 220.076 430.193 220.992C430.422 221.449 430.652 221.907 430.881 222.365L431.8 224.196C433.178 226.942 434.785 229.917 436.392 232.892C436.852 233.807 437.081 234.722 437.311 235.638C438.229 237.011 438.689 238.842 438.918 240.672ZM428.126 229.001C426.519 225.569 425.141 222.136 423.534 218.932C423.304 223.051 423.534 229.459 423.763 232.434L424.452 232.205L429.274 231.29L428.126 229.001Z" fill="white"/>
<path d="M460.043 218.703C460.502 222.593 461.421 226.484 462.569 230.145L463.488 233.578C463.488 234.036 463.717 234.493 463.717 234.951V235.18C463.947 236.095 464.176 237.697 462.569 238.613C462.11 238.841 461.651 239.07 461.191 239.299C459.814 239.528 458.206 239.299 457.288 238.155C456.829 237.697 456.599 237.24 456.14 236.782C455.91 236.553 455.68 236.095 455.451 235.866C452.466 232.434 450.399 228.772 448.333 224.882C447.184 222.822 446.036 220.991 444.888 218.932C445.118 220.305 445.348 221.678 445.577 223.051L447.414 232.434C447.873 234.722 448.333 237.011 448.792 239.299C449.021 241.13 448.333 242.274 446.496 242.732C445.577 242.961 444.659 242.732 444.429 242.274C444.199 241.816 443.511 241.359 443.281 240.443C443.051 239.528 443.051 238.613 442.822 237.926L442.592 236.324C442.362 235.18 442.133 233.807 441.903 232.205C441.674 230.832 441.214 229.459 440.985 228.086C440.525 226.026 440.066 223.966 439.607 221.907C439.377 221.22 439.377 220.305 439.148 219.618C438.918 218.474 438.918 217.559 438.689 216.415C438 213.668 437.081 210.693 436.163 207.947L435.933 207.032C435.244 204.972 435.933 203.141 437.311 202.226C437.77 201.997 438 201.768 438.459 201.768C440.296 201.311 442.133 201.997 443.051 203.599C444.659 206.345 446.496 209.32 448.103 212.295C449.481 214.584 450.858 216.872 452.236 219.39C452.925 220.763 453.843 222.136 454.532 223.28C454.303 221.678 454.073 220.076 453.843 218.474C453.843 217.559 453.384 215.499 453.155 214.584C452.925 212.524 452.236 210.236 451.777 208.176C451.547 207.49 451.318 206.574 451.088 205.659C451.088 205.201 450.858 204.743 450.858 204.286C450.629 203.599 450.399 203.141 450.399 202.455C449.94 200.395 451.088 199.022 452.925 198.565C454.303 198.336 455.221 198.793 455.91 199.938C455.91 199.938 455.91 200.166 456.14 200.166C456.369 200.624 456.599 201.082 456.599 201.54C457.288 204.515 457.977 207.718 458.666 210.922C459.125 213.897 459.814 216.872 460.043 218.703Z" fill="white"/>
<path d="M488.516 229.917C488.746 231.061 488.516 231.747 488.287 232.434C488.057 233.12 487.368 233.807 486.45 234.036H486.22C485.302 234.265 484.383 234.036 483.694 233.578C483.005 233.12 482.546 232.434 482.317 231.29C482.087 230.832 482.087 230.603 482.087 230.145C482.087 229.917 482.087 229.688 482.087 229.459C481.857 228.772 481.628 227.628 481.398 226.713C481.398 226.484 481.398 226.484 481.168 226.255C478.872 226.255 476.576 226.713 474.05 227.17L472.672 227.399C472.672 228.086 472.672 228.543 472.672 229.23C472.672 230.145 472.902 231.061 472.902 231.976C472.902 232.663 473.132 233.349 473.132 234.036C473.361 235.638 472.443 236.782 471.065 237.011C470.147 237.24 469.458 237.011 468.769 236.553C468.08 236.095 467.85 235.409 467.621 234.722C467.391 234.265 467.391 233.578 467.391 232.892C467.162 231.061 466.702 229.23 467.162 227.17C467.391 225.34 467.391 223.509 467.391 221.449C467.391 220.534 467.391 219.618 467.162 218.703C467.162 217.33 467.162 215.957 467.162 214.813C467.162 211.38 467.162 207.947 467.162 204.515C467.162 204.057 467.162 203.37 467.162 202.913C467.162 201.768 467.391 200.624 467.162 199.48C466.932 198.336 467.162 197.649 467.85 196.963C468.31 196.505 468.999 196.047 470.147 195.819H470.606C472.672 195.361 473.591 196.276 474.28 197.878L476.346 202.455C477.035 204.286 477.954 206.117 478.643 207.947C479.102 208.634 479.331 209.32 479.791 210.236C480.02 210.694 480.25 211.151 480.48 211.609L481.398 213.44C482.776 216.186 484.383 219.161 485.99 222.136C486.45 223.051 486.679 223.967 486.909 224.882C487.598 226.255 488.057 228.086 488.516 229.917ZM477.495 218.245C475.887 214.813 474.509 211.38 472.902 208.176C472.672 212.295 472.902 218.703 473.132 221.678L473.821 221.449L478.643 220.534L477.495 218.245Z" fill="white"/>
<path d="M509.412 207.947C509.871 211.838 510.789 215.728 511.937 219.39L512.856 222.822C512.856 223.28 513.086 223.738 513.086 224.195V224.424C513.315 225.34 513.545 226.941 511.937 227.857C511.478 228.086 511.019 228.315 510.56 228.543C509.182 228.772 507.575 228.543 506.656 227.399C506.197 226.941 505.967 226.484 505.508 226.026C505.278 225.797 505.049 225.34 504.819 225.111C501.834 221.678 499.768 218.016 497.701 214.126C496.553 212.066 495.405 210.236 494.257 208.176C494.486 209.549 494.716 210.922 494.946 212.295L496.783 221.678C497.242 223.966 497.701 226.255 498.16 228.543C498.39 230.374 497.701 231.518 495.864 231.976C494.946 232.205 494.027 231.976 493.797 231.518C493.338 231.29 492.879 230.603 492.649 229.688C492.42 228.772 492.42 227.857 492.19 227.17L491.96 225.568C491.731 224.424 491.501 223.051 491.272 221.449C491.042 220.076 490.583 218.703 490.353 217.33C489.894 215.27 489.435 213.211 488.975 211.151C488.746 210.465 488.746 209.549 488.516 208.863C488.287 207.718 488.287 206.803 488.057 205.659C487.368 202.913 486.45 199.938 485.531 197.191L485.301 196.734C484.613 194.674 485.301 192.843 486.679 191.928C487.138 191.699 487.368 191.47 487.827 191.47C489.664 191.013 491.501 191.699 492.42 193.301C494.027 196.047 495.864 199.022 497.471 201.997C498.849 204.286 500.227 206.574 501.605 209.091C502.293 210.465 503.212 211.838 503.901 212.982C503.671 211.38 503.442 209.778 503.212 208.176C503.212 207.261 502.753 205.201 502.523 204.286C502.293 202.226 501.605 199.938 501.145 197.878C500.916 197.191 500.686 196.276 500.456 195.361C500.456 194.903 500.227 194.445 499.997 193.988C499.768 193.301 499.538 192.843 499.538 192.157C499.079 190.097 500.227 188.724 502.064 188.266C503.442 188.038 504.36 188.495 505.049 189.64C505.049 189.64 505.049 189.868 505.278 189.868C505.508 190.326 505.738 190.784 505.738 191.241C506.427 194.216 507.115 197.42 507.804 200.624C508.723 203.141 509.182 206.116 509.412 207.947Z" fill="white"/>
<path d="M537.885 219.161C538.114 220.305 537.885 220.992 537.655 221.678C537.425 222.365 536.737 223.051 535.818 223.28H535.589C534.67 223.509 533.752 223.28 533.063 222.822C532.374 222.365 531.915 221.678 531.685 220.534C531.455 220.076 531.455 219.847 531.455 219.39C531.455 219.161 531.455 218.932 531.455 218.703C531.226 218.016 530.996 216.872 530.766 215.957C530.766 215.728 530.766 215.728 530.537 215.499C528.241 215.499 525.944 215.957 523.419 216.415L522.041 216.643C522.041 217.33 522.041 217.788 522.041 218.474C522.041 219.39 522.271 220.305 522.271 221.22C522.271 221.907 522.5 222.593 522.5 223.28C522.73 224.882 521.811 226.026 520.434 226.255C519.515 226.484 518.826 226.255 518.137 225.797C517.448 225.34 517.219 224.653 516.989 223.967C516.76 223.509 516.76 222.822 516.76 222.136C516.53 220.305 516.071 218.474 516.53 216.415C516.76 214.584 516.76 212.753 516.76 210.693C516.76 209.778 516.76 208.863 516.53 207.947C516.53 206.574 516.53 205.201 516.53 204.057C516.53 200.624 516.53 197.191 516.53 193.759C516.53 193.301 516.53 192.615 516.53 192.157C516.53 191.013 516.76 189.868 516.53 188.724C516.3 187.58 516.53 186.893 517.219 186.207C517.678 185.749 518.367 185.291 519.515 185.063H519.974C522.041 184.605 522.959 185.52 523.648 187.122L525.715 191.699C526.404 193.53 527.322 195.361 528.011 197.191C528.47 197.878 528.7 198.565 529.159 199.48C529.389 199.938 529.618 200.395 529.848 200.853L530.766 202.684C532.144 205.43 533.752 208.405 535.359 211.38C535.818 212.295 536.048 213.211 536.277 214.126C537.196 215.499 537.425 217.33 537.885 219.161ZM526.863 207.49C525.256 204.057 523.878 200.624 522.271 197.42C522.041 201.54 522.271 207.947 522.5 210.922L523.189 210.693L528.011 209.778L526.863 207.49Z" fill="white"/>
<path d="M558.78 214.584C558.55 215.728 557.632 216.643 556.943 217.33C556.484 217.788 556.025 218.016 555.565 218.245C555.336 218.474 555.106 218.703 554.876 218.703C553.958 219.39 553.04 220.076 551.891 220.305C550.973 220.534 549.825 220.534 548.447 220.305C544.084 219.39 541.559 217.33 540.41 213.897L539.951 212.982L539.492 211.609C539.033 210.465 539.492 209.778 539.722 209.32C539.951 208.863 540.41 208.405 541.329 208.176C541.559 208.176 541.788 208.176 542.018 208.176C542.936 208.176 543.395 208.176 544.084 208.634C544.773 208.863 545.232 209.549 545.692 210.465C545.921 211.38 546.381 212.066 547.069 213.211C547.758 214.355 549.136 215.041 550.054 214.813C551.432 214.355 552.58 212.982 552.81 211.838C553.04 209.32 552.121 207.261 549.595 205.201C548.447 204.286 547.069 203.599 545.692 202.684C545.003 202.226 544.084 201.768 543.395 201.311C542.018 200.395 540.87 199.48 539.722 198.565C537.196 196.734 536.736 193.988 536.277 191.699C536.048 190.326 536.048 189.182 536.048 188.266C536.048 186.893 536.507 185.749 536.966 184.605C538.344 181.63 540.64 179.799 543.625 179.113H544.084C545.692 178.655 547.529 178.884 549.366 179.57C551.432 180.486 552.81 181.859 553.728 183.69C554.188 184.605 554.188 185.52 554.417 186.665C554.647 188.266 553.728 189.411 552.351 189.868C550.973 190.097 549.595 189.411 548.906 188.266C548.677 187.809 548.447 187.58 548.447 187.122C548.447 186.893 548.218 186.665 548.218 186.436C547.758 185.52 546.84 185.063 545.692 185.291C545.232 185.291 545.003 185.52 544.773 185.749C543.395 186.665 542.707 188.495 542.707 190.326C542.707 192.157 543.395 193.759 544.773 194.903C546.151 196.047 547.529 196.963 548.677 197.42C552.121 198.793 555.106 201.082 557.632 204.515C559.699 206.574 560.158 210.465 558.78 214.584Z" fill="white"/>
</g>
<defs>
<clipPath id="clip0_164_2456">
<rect width="320.049" height="488.142" fill="white" transform="matrix(0.975873 -0.218339 0.267825 0.963467 0 69.8792)"/>
</clipPath>
<clipPath id="clip1_164_2456">
<rect width="369" height="238" fill="white" transform="translate(260.273 47.0685)"/>
</clipPath>
</defs>
</svg>
