<svg width="37" height="52" viewBox="0 0 37 52" fill="none" xmlns="http://www.w3.org/2000/svg">
<path fill-rule="evenodd" clip-rule="evenodd" d="M27.6118 0.236632C26.2273 0.360831 25.0819 0.475281 25.0665 0.491082C25.0511 0.506835 25.0735 2.64507 25.1163 5.24274C25.1872 9.54846 25.1876 9.99742 25.1203 10.3248C24.9745 11.0332 24.6445 11.5118 24.1188 11.777C23.8136 11.931 23.7907 11.9349 23.1959 11.9349C22.608 11.9349 22.5747 11.9294 22.2721 11.7824C21.8776 11.5908 21.5647 11.2731 21.3869 10.8837C21.1189 10.2966 21.1187 10.2939 21.0886 5.77018C21.0733 3.48147 21.0489 1.34689 21.0343 1.02659L21.0077 0.444207L19.3371 0.414478C18.4182 0.398149 15.9587 0.372886 13.8714 0.358382L10.0764 0.332015L7.71031 4.06376C6.40897 6.11622 5.30672 7.84074 5.2609 7.89607C5.18031 7.99323 5.17839 7.97892 5.20299 7.46829C5.217 7.17772 5.25954 5.82695 5.29754 4.46657C5.33558 3.10618 5.3755 1.84085 5.38628 1.65474L5.40586 1.31634L2.70443 0.926356C1.21869 0.711913 0.00230002 0.539974 0.00136297 0.544345C-0.0140515 0.61629 0.106032 17.4355 0.122102 17.452C0.147684 17.4782 5.17923 16.9228 5.211 16.8902C5.2222 16.8787 5.18865 16.1373 5.13641 15.2426C5.08417 14.3479 5.03577 13.5037 5.02888 13.3666L5.01628 13.1174L5.53049 12.5137C5.81329 12.1817 6.05927 11.9156 6.07702 11.9225C6.09483 11.9293 7.12544 13.0803 8.36732 14.4803C9.6092 15.8803 10.6748 17.0784 10.7353 17.1427L10.8454 17.2596L13.7522 16.8305C15.351 16.5945 16.6591 16.3895 16.6591 16.3749C16.6591 16.3603 15.2678 14.3936 13.5673 12.0044C11.8667 9.61517 10.4847 7.63446 10.496 7.60277C10.5074 7.57107 11.6616 6.15017 13.0608 4.44519L15.605 1.34525L15.6157 2.12546C15.6276 3.00148 15.7438 6.85008 15.8168 8.78905C15.8707 10.2193 15.9667 11.3442 16.1018 12.127C16.2594 13.0408 16.7409 13.8841 17.5512 14.6655C18.6549 15.7298 20.098 16.3619 21.9058 16.5729C22.5401 16.647 24.2862 16.6042 24.9521 16.4984C27.5493 16.0854 29.287 14.9743 30.1297 13.1877C30.5152 12.3704 30.5409 12.2196 30.5638 10.6381C30.5749 9.87207 30.5687 7.16514 30.5501 4.62265L30.5161 0L30.3227 0.00542707C30.2163 0.0084528 28.9964 0.112481 27.6118 0.236632ZM32.3186 0.192975C31.6954 0.514856 31.4186 1.22077 31.6384 1.92759C31.7559 2.30537 32.1514 2.70222 32.52 2.81206C33.1853 3.01032 33.8482 2.72057 34.1736 2.0892C34.338 1.77015 34.3502 1.19771 34.1998 0.862047C33.964 0.336001 33.5832 0.0832318 32.9873 0.0573929C32.6434 0.0425044 32.5882 0.0536947 32.3186 0.192975ZM33.4637 0.294649C33.7565 0.436091 34.0225 0.758932 34.115 1.08494C34.3991 2.08661 33.4889 2.99697 32.5362 2.66419C31.7317 2.38318 31.4472 1.30342 32.0025 0.638479C32.395 0.168433 32.9379 0.0406795 33.4637 0.294649ZM32.3079 1.41681V2.16124H32.5422H32.7765V1.94512C32.7765 1.66531 32.8542 1.66531 33.0267 1.94521L33.1599 2.16124H33.4395C33.7452 2.16124 33.7417 2.17421 33.5214 1.8602L33.3945 1.67919L33.5305 1.53972C33.768 1.29626 33.6824 0.833711 33.38 0.725601C33.298 0.696352 33.0233 0.672386 32.7695 0.672386H32.3079V1.41681ZM33.1075 1.10632C33.2938 1.20852 33.1581 1.3928 32.8967 1.3928C32.7905 1.3928 32.7765 1.37316 32.7765 1.2247C32.7765 1.07625 32.7905 1.05661 32.8967 1.05661C32.9628 1.05661 33.0577 1.07899 33.1075 1.10632ZM18.7979 17.9261C18.7303 18.4339 17.2091 34.1027 17.2259 34.1175C17.2363 34.1266 18.1409 34.1697 19.2361 34.2132C20.3312 34.2567 21.4115 34.3052 21.6366 34.321L22.046 34.3498L22.0583 32.6758L22.0706 31.0018L24.0384 30.8284C25.1207 30.7331 26.0213 30.6685 26.0397 30.685C26.058 30.7014 26.2263 31.5224 26.4135 32.5094L26.7541 34.3039L27.247 34.2753C27.518 34.2595 28.6413 34.2203 29.7431 34.1882C31.5227 34.1363 31.7439 34.1213 31.7233 34.0546C31.7106 34.0133 30.8173 30.327 29.7383 25.8629L27.7765 17.7462L23.3008 17.7339L18.8251 17.7217L18.7979 17.9261ZM2.32225 18.2047C1.124 18.3593 0.127771 18.4868 0.108468 18.4882C0.0891649 18.4895 0.0733287 22.0561 0.0733287 26.414L0.0733287 34.3373L0.202173 34.3134C0.273061 34.3002 1.36009 34.1302 2.6178 33.9356C3.87556 33.741 4.91302 33.5731 4.92328 33.5626C4.93354 33.5521 4.87956 33.2673 4.80338 32.9298C4.7272 32.5923 4.66489 32.2639 4.66489 32.2C4.66489 32.0971 5.18589 29.0188 5.39607 27.88C5.44737 27.6019 5.54051 27.3145 5.65713 27.0743L5.83845 26.7009L6.09323 26.8822L6.34802 27.0635L6.3498 27.9439L6.35158 28.8243L7.55888 30.7295C8.62796 32.4166 8.78117 32.6828 8.89704 33.0548C9.00236 33.393 9.0479 33.4791 9.13046 33.4965C9.28797 33.5297 15.8281 34.055 15.8467 34.0359C15.8727 34.0093 16.4685 17.991 16.4444 17.9664C16.4209 17.9422 10.5261 18.5639 10.5029 18.593C10.495 18.6027 10.5805 20.1648 10.6929 22.0643C10.8052 23.9637 10.8859 25.5294 10.8722 25.5434C10.8585 25.5574 10.818 25.5269 10.7822 25.4758C10.7464 25.4245 9.41115 23.7076 7.81502 21.6604L4.91302 17.9383L4.70696 17.931C4.59362 17.9269 3.52051 18.0501 2.32225 18.2047ZM22.7952 21.2731C22.8219 21.3242 22.8457 21.4593 22.8482 21.5732C22.8507 21.6872 22.8783 21.8886 22.9095 22.0206L22.9663 22.2608L23.0297 21.8285C23.1142 21.2523 23.1461 21.1697 23.2769 21.1889C23.3666 21.2019 23.4001 21.2709 23.5062 21.6604C23.6476 22.179 23.7087 22.1608 23.7098 21.5998C23.7104 21.3298 23.7247 21.2705 23.7947 21.2476C24.009 21.178 24.0907 21.4692 23.9881 21.9363C23.9489 22.1148 23.8915 22.4445 23.8605 22.669C23.8098 23.0364 23.7935 23.0788 23.6978 23.0927C23.5724 23.111 23.5124 22.9862 23.3788 22.4289L23.2925 22.0687L23.2586 22.3088C23.1872 22.8147 23.1446 22.9731 23.0664 23.0237C22.9237 23.1159 22.8168 22.9287 22.6853 22.3561C22.5212 21.6414 22.4937 21.4082 22.5588 21.2834C22.6258 21.1551 22.7312 21.1505 22.7952 21.2731ZM24.9951 21.2689C25.0644 21.4016 24.9684 21.4683 24.7084 21.4683H24.4835V21.8045V22.1407H24.649C24.7593 22.1407 24.8243 22.167 24.844 22.2197C24.8801 22.3161 24.7441 22.4289 24.5917 22.4289C24.4993 22.4289 24.4835 22.4534 24.4835 22.597V22.7651H24.7209C24.9522 22.7651 24.9579 22.7684 24.9434 22.8972C24.9288 23.0281 24.9257 23.0292 24.5772 23.0292H24.2259L24.1932 22.573C24.1753 22.322 24.1729 21.9179 24.1878 21.6749L24.2149 21.2332L24.3844 21.2148C24.8191 21.1674 24.9481 21.1788 24.9951 21.2689ZM23.5417 23.7924C23.6789 23.9421 23.667 24.2299 23.5237 24.2299C23.4684 24.2299 23.4056 24.1764 23.3689 24.0978C23.3349 24.0252 23.2884 23.9658 23.2655 23.9658C23.2191 23.9658 23.078 24.1567 23.078 24.2194C23.078 24.2416 23.1805 24.3718 23.3058 24.509C23.5904 24.8204 23.6402 24.9181 23.6402 25.1655C23.6402 25.6795 22.9535 25.773 22.7949 25.2806C22.7269 25.0693 22.7652 24.9631 22.9021 24.983C22.9685 24.9926 23.0325 25.0562 23.0747 25.1544C23.1456 25.3195 23.2106 25.3475 23.3029 25.2529C23.4097 25.1434 23.358 25.0188 23.078 24.7102C22.7719 24.3729 22.7378 24.2517 22.8627 23.9451C22.9425 23.7495 23.0471 23.681 23.2689 23.679C23.3863 23.678 23.468 23.712 23.5417 23.7924ZM24.5583 23.8072C24.6505 23.9092 24.6725 23.9781 24.6615 24.1314C24.6492 24.3031 24.6338 24.326 24.5304 24.326C24.4328 24.326 24.4093 24.2985 24.3898 24.1617C24.363 23.9737 24.292 23.9289 24.1887 24.0347C24.0635 24.1631 24.0288 25.0806 24.1418 25.2769C24.1831 25.3485 24.2935 25.2055 24.3235 25.0416C24.3708 24.7835 24.6243 24.8463 24.6239 25.116C24.6233 25.5403 24.135 25.7591 23.9026 25.4392C23.8224 25.3288 23.8011 25.2189 23.7878 24.8464C23.7788 24.5949 23.7859 24.2904 23.8035 24.1696C23.869 23.722 24.2959 23.5169 24.5583 23.8072ZM25.7469 23.7705C25.8029 23.8777 25.8071 24.5582 25.7547 25.0413C25.7248 25.3179 25.6978 25.391 25.5905 25.4855C25.4216 25.6345 25.1857 25.6348 25.0172 25.4863C24.8653 25.3523 24.8252 25.0925 24.8311 24.2788C24.8346 23.805 24.8438 23.7496 24.9219 23.734C24.9697 23.7244 25.0279 23.7361 25.0511 23.7599C25.0743 23.7837 25.103 24.1138 25.1149 24.4936C25.1317 25.0314 25.1526 25.2005 25.2092 25.2585C25.2646 25.3153 25.301 25.3205 25.3629 25.2806C25.433 25.2353 25.4457 25.1305 25.4562 24.5129C25.4629 24.1195 25.478 23.7707 25.4899 23.7376C25.5231 23.6449 25.6927 23.6666 25.7469 23.7705ZM26.7276 23.7435C26.8043 23.8384 26.7405 23.9658 26.6162 23.9658C26.5578 23.9658 26.444 23.9793 26.3635 23.9958C26.2179 24.0257 26.2171 24.0275 26.2171 24.332V24.6381H26.3825C26.487 24.6381 26.558 24.6649 26.5752 24.7108C26.6158 24.8191 26.5047 24.9263 26.3519 24.9263C26.2291 24.9263 26.2171 24.9413 26.2171 25.0944C26.2171 25.2604 26.2195 25.2625 26.4186 25.2625C26.6509 25.2625 26.749 25.3333 26.6853 25.4551C26.6383 25.5452 26.2247 25.6174 26.0404 25.5676L25.934 25.5389L25.9467 24.6443L25.9594 23.7496L26.1937 23.7212C26.5953 23.6724 26.6725 23.6756 26.7276 23.7435ZM21.5166 23.8803C21.6982 24.0664 21.7196 24.3922 21.5658 24.6304L21.447 24.8144L21.5565 24.9577C21.6294 25.0532 21.6709 25.1801 21.6809 25.3379C21.695 25.562 21.6896 25.5747 21.5798 25.5747C21.4913 25.5747 21.4541 25.5406 21.4229 25.4306C21.3001 24.9979 21.1574 24.8994 21.1563 25.2465C21.1555 25.5194 21.1087 25.6146 20.9874 25.5909C20.9068 25.5751 20.8961 25.5005 20.8618 24.7146C20.8412 24.2422 20.8363 23.8237 20.8508 23.7847C20.8967 23.6623 21.3703 23.7303 21.5166 23.8803ZM22.6019 23.8399C22.6249 23.9641 22.532 24.0122 22.2676 24.0131L22.0429 24.0138L22.0568 24.338C22.0699 24.6457 22.0766 24.6625 22.1878 24.6694C22.2522 24.6735 22.3313 24.6788 22.3635 24.6814C22.4381 24.6875 22.4396 24.8411 22.3658 24.9167C22.3349 24.9484 22.2505 24.9743 22.1784 24.9743C22.043 24.9743 22.0268 25.0116 22.0777 25.206C22.1009 25.295 22.1293 25.3119 22.2176 25.2892C22.4032 25.2414 22.5626 25.3067 22.5626 25.4307C22.5626 25.491 22.5292 25.5535 22.4885 25.5695C22.3576 25.621 21.8804 25.6006 21.8223 25.5411C21.7829 25.5007 21.7661 25.2344 21.7661 24.651C21.7661 23.6843 21.7448 23.7221 22.281 23.7396C22.537 23.7481 22.5877 23.7639 22.6019 23.8399ZM21.1102 24.302C21.1102 24.6094 21.1476 24.6478 21.2976 24.4941C21.4099 24.3789 21.4191 24.1932 21.3177 24.0892C21.168 23.9358 21.1102 23.9952 21.1102 24.302ZM27.4524 26.2746C27.598 26.392 27.6275 26.6727 27.4996 26.723C27.4129 26.7572 27.2947 26.6748 27.2947 26.5802C27.2947 26.4714 27.199 26.4501 27.1043 26.538C26.9624 26.6696 26.9958 26.7961 27.2288 27.01C27.4797 27.2403 27.5758 27.4083 27.5758 27.6166C27.5758 27.915 27.4143 28.0922 27.1403 28.0946C26.9388 28.0963 26.7567 27.9478 26.7059 27.7402C26.6325 27.4404 26.8771 27.355 26.9932 27.6399C27.0669 27.8207 27.1536 27.8523 27.2497 27.7336C27.3282 27.6367 27.2107 27.3679 27.0397 27.253C26.8752 27.1425 26.7325 26.889 26.7325 26.7073C26.7325 26.527 26.8395 26.2959 26.955 26.2269C27.0899 26.1464 27.3208 26.1685 27.4524 26.2746ZM21.7328 26.2919C21.7697 26.3297 21.8144 26.4536 21.8322 26.5672C21.8499 26.6807 21.9172 26.962 21.9819 27.1923C22.0549 27.4524 22.0939 27.6983 22.085 27.8415C22.0719 28.0516 22.0602 28.0721 21.9535 28.0721C21.852 28.0721 21.8345 28.0482 21.8218 27.892C21.8077 27.7176 21.8016 27.7119 21.6268 27.7119C21.4528 27.7119 21.4452 27.7188 21.4147 27.904C21.388 28.0661 21.3654 28.0961 21.27 28.0961C21.1691 28.0961 21.157 28.0752 21.157 27.9013C21.157 27.7941 21.1772 27.6158 21.2019 27.5051C21.2266 27.3943 21.2919 27.0876 21.347 26.8234C21.4624 26.2703 21.5688 26.1237 21.7328 26.2919ZM22.5803 26.3311C22.617 26.3905 22.695 26.5947 22.7538 26.7849C22.8125 26.975 22.8789 27.119 22.9013 27.1047C22.9237 27.0905 22.9381 26.9107 22.9333 26.7052C22.9285 26.4996 22.9392 26.307 22.9571 26.2772C23.0077 26.1933 23.1623 26.2133 23.1915 26.3075C23.2359 26.451 23.2073 27.9725 23.1589 28.0361C23.0963 28.1186 22.9613 28.1114 22.8887 28.0217C22.8556 27.9809 22.7698 27.7809 22.6981 27.5775L22.5678 27.2076L22.5652 27.5018C22.5607 28.0102 22.4889 28.1979 22.3361 28.1011C22.2742 28.0618 22.2392 26.38 22.2983 26.2819C22.3554 26.1874 22.508 26.214 22.5803 26.3311ZM24.1704 27.0171C24.3633 27.8077 24.3727 28.021 24.2177 28.082C24.1244 28.1187 24.015 27.9773 24.015 27.8199C24.015 27.7178 23.997 27.7076 23.8393 27.721C23.6779 27.7347 23.6618 27.7495 23.6402 27.904C23.6224 28.0318 23.5919 28.0758 23.513 28.0873C23.3765 28.1071 23.3293 27.9242 23.4002 27.6499C23.429 27.5387 23.4969 27.2218 23.5512 26.9456C23.6858 26.2604 23.7061 26.2133 23.8582 26.2319C23.9777 26.2465 23.9897 26.2767 24.1704 27.0171ZM24.8001 26.2831C24.8259 26.3161 24.9076 26.5359 24.9816 26.7714L25.1161 27.1997L25.1395 26.7234C25.1628 26.2488 25.1634 26.247 25.2891 26.2321C25.3994 26.2191 25.4187 26.2373 25.4423 26.3762C25.4572 26.4637 25.4532 26.881 25.4333 27.3037C25.3983 28.0484 25.3939 28.0726 25.293 28.0873C25.1611 28.1065 25.0378 27.9102 24.8931 27.4503L24.7881 27.1165L24.7647 27.5943C24.7416 28.0655 24.7396 28.0721 24.6241 28.0721H24.507L24.5018 27.2316C24.4989 26.7694 24.5056 26.3533 24.5166 26.3071C24.54 26.2091 24.7297 26.193 24.8001 26.2831ZM26.2458 26.3551C26.2626 26.4278 26.3368 26.7292 26.4107 27.0249C26.5652 27.6432 26.5863 28.0216 26.4688 28.0678C26.3592 28.1109 26.2639 28.0102 26.2639 27.851C26.2639 27.7447 26.2376 27.707 26.1469 27.6836C25.9716 27.6385 25.8891 27.6914 25.8891 27.8486C25.8891 28.0121 25.7941 28.111 25.6802 28.0662C25.6162 28.041 25.6037 27.9897 25.6189 27.8133C25.6468 27.4895 25.8898 26.3532 25.9461 26.2831C25.9726 26.2501 26.044 26.2231 26.1048 26.2231C26.1867 26.2231 26.2232 26.2572 26.2458 26.3551ZM20.7389 26.4115C20.8852 26.5615 20.9232 26.8112 20.8275 26.9945C20.7897 27.0669 20.802 27.1189 20.8837 27.2322C21.0851 27.5115 20.9823 27.8419 20.6367 28.0263C20.4975 28.1006 20.1728 28.1313 20.0889 28.0781C20.0483 28.0524 20.0325 27.7945 20.0325 27.1568V26.2711H20.3173C20.5695 26.2711 20.6176 26.2871 20.7389 26.4115ZM20.3137 26.8549V27.1505L20.4128 27.059C20.6213 26.8664 20.617 26.5593 20.4057 26.5593C20.3242 26.5593 20.3137 26.593 20.3137 26.8549ZM23.8124 27.0336C23.7559 27.323 23.7719 27.4237 23.8745 27.4237C23.926 27.4237 23.9673 27.4184 23.9662 27.4117C23.9651 27.4051 23.9372 27.2809 23.9041 27.1356C23.8443 26.873 23.8438 26.8724 23.8124 27.0336ZM21.5796 26.9915C21.5785 27.0311 21.5646 27.1446 21.5486 27.2436C21.5225 27.4057 21.5298 27.4237 21.6215 27.4237C21.7137 27.4237 21.7205 27.4065 21.6919 27.2436C21.6551 27.0336 21.5828 26.8713 21.5796 26.9915ZM26.07 26.9675C26.0546 26.9939 26.0277 27.0966 26.0103 27.1956C25.9821 27.3556 25.9893 27.3757 26.0744 27.3757C26.1753 27.3757 26.1841 27.3252 26.1285 27.0635C26.1117 26.9843 26.0854 26.9411 26.07 26.9675ZM20.4191 27.4252C20.3138 27.4686 20.2918 27.5664 20.3522 27.7223C20.3793 27.7924 20.4009 27.796 20.4965 27.7463C20.6402 27.6717 20.7115 27.5544 20.674 27.4543C20.6414 27.3674 20.5773 27.3601 20.4191 27.4252ZM12.7938 34.8233C11.2734 34.8706 9.9106 34.9161 9.76526 34.9246L9.50101 34.9401L9.81914 35.9885C9.99414 36.5651 10.1777 37.0838 10.2271 37.1411C10.2765 37.1985 10.7252 37.7101 11.2243 38.278C11.7233 38.8459 12.1726 39.3581 12.2227 39.4162C12.3133 39.5213 12.3129 39.5252 12.16 40.1006C12.0754 40.419 11.9846 40.6794 11.9582 40.6794C11.9319 40.6794 11.2044 40.4038 10.3417 40.067L8.77306 39.4547L7.19919 37.9993L5.62536 36.544L5.51001 36.0422L5.39462 35.5404L4.71352 35.5389C4.33888 35.5381 3.1478 35.5173 2.06663 35.4928C0.985456 35.4682 0.0927259 35.4565 0.0827931 35.4667C0.0652234 35.4847 0.213325 51.9804 0.231222 51.9994C0.254555 52.024 5.39621 51.3232 5.43182 51.2905C5.46635 51.2589 5.39021 47.1719 5.29496 43.9452C5.269 43.0645 5.26952 43.0576 5.35905 43.1625C5.40876 43.2207 6.65579 45.02 8.13025 47.161C9.98027 49.8473 10.8425 51.0612 10.9123 51.078C11.1995 51.1469 15.9723 51.9175 15.9913 51.898C16.0172 51.8714 15.8752 37.376 15.8335 35.7926L15.8054 34.7239L15.6818 34.7307C15.6137 34.7344 14.3142 34.7761 12.7938 34.8233ZM19.1892 35.2692C19.1892 35.3062 18.6522 39.0607 17.9959 43.6126C17.3395 48.1644 16.8071 51.8923 16.8128 51.8967C16.8335 51.9129 21.5559 51.76 21.5755 51.7424C21.5866 51.7325 21.7622 50.7684 21.9657 49.6C22.1692 48.4316 22.3393 47.4721 22.3437 47.4678C22.3802 47.4318 26.1702 47.3988 26.1702 47.4344C26.1702 47.5224 26.9221 51.5039 26.9427 51.525C26.9707 51.5537 32.0817 51.6855 32.1083 51.6581C32.1281 51.6379 28.7516 35.4878 28.7199 35.4506C28.7115 35.4409 26.9907 35.394 24.8957 35.3465C22.8008 35.299 20.6598 35.2471 20.138 35.231C19.3418 35.2065 19.1892 35.2127 19.1892 35.2692ZM34.233 35.4266C32.9854 35.489 31.9553 35.5496 31.9439 35.5613C31.9229 35.5829 32.7541 47.5438 32.8028 47.9202L32.8293 48.1251L34.1942 48.1124L35.559 48.0996L36.274 41.832C36.6672 38.3848 36.9899 35.505 36.9911 35.4324C36.9936 35.2729 37.2906 35.2735 34.233 35.4266ZM32.7578 49.5044C32.7684 49.6563 32.7981 50.2327 32.8237 50.7852C32.8494 51.3378 32.8756 51.7933 32.882 51.7975C32.9126 51.8176 35.5404 51.55 35.5655 51.5243C35.5943 51.4947 35.51 49.6771 35.4662 49.3844L35.4428 49.2283H34.0907H32.7385L32.7578 49.5044Z" fill="#46281F"/>
</svg>
