<svg width="279" height="382" viewBox="0 0 279 382" fill="none" xmlns="http://www.w3.org/2000/svg">
<path fill-rule="evenodd" clip-rule="evenodd" d="M208.208 1.73834C197.768 2.65072 189.131 3.49149 189.015 3.60756C188.899 3.72329 189.068 19.4311 189.39 38.514C189.925 70.1445 189.928 73.4426 189.42 75.8474C188.321 81.0518 185.833 84.5677 181.869 86.5156C179.567 87.6467 179.395 87.6753 174.91 87.6753C170.476 87.6753 170.226 87.635 167.943 86.5554C164.969 85.148 162.609 82.8142 161.269 79.9532C159.248 75.6403 159.246 75.6205 159.019 42.3886C158.904 25.5754 158.72 9.89443 158.61 7.54148L158.409 3.26321L145.812 3.04482C138.883 2.92486 120.337 2.73928 104.598 2.63273L75.9812 2.43903L58.1399 29.853C48.3271 44.9307 40.0155 57.5993 39.67 58.0057C39.0623 58.7195 39.0479 58.6144 39.2333 54.8632C39.339 52.7286 39.6598 42.8056 39.9463 32.8121C40.2332 22.8185 40.5342 13.5232 40.6154 12.156L40.7631 9.67004L20.3929 6.80515C9.18957 5.22982 0.0173434 3.96673 0.0102775 3.99884C-0.105956 4.52736 0.799538 128.084 0.920718 128.205C1.11362 128.398 39.0542 124.318 39.2938 124.078C39.3782 123.994 39.1252 118.547 38.7313 111.974C38.3374 105.402 37.9724 99.2001 37.9205 98.1931L37.8255 96.3624L41.7029 91.9278C43.8354 89.4888 45.6901 87.5341 45.824 87.5843C45.9583 87.6344 53.7297 96.09 63.0941 106.375C72.4585 116.659 80.4939 125.46 80.95 125.933L81.7798 126.792L103.699 123.639C115.755 121.906 125.618 120.399 125.619 120.293C125.619 120.185 115.128 105.737 102.304 88.1861C89.4817 70.6345 79.0602 56.084 79.1457 55.8511C79.2315 55.6182 87.9346 45.1801 98.4857 32.6551L117.67 9.88243L117.75 15.614C117.841 22.0494 118.717 50.3217 119.268 64.5657C119.674 75.0723 120.398 83.336 121.416 89.0865C122.605 95.8 126.235 101.994 132.346 107.735C140.668 115.554 151.55 120.197 165.181 121.747C169.965 122.291 183.131 121.977 188.152 121.2C207.736 118.166 220.84 110.004 227.194 96.8789C230.101 90.8746 230.295 89.7668 230.468 78.1492C230.551 72.5217 230.505 52.6362 230.364 33.9587L230.108 0L228.649 0.0398681C227.848 0.0620956 218.649 0.826301 208.208 1.73834ZM243.7 1.41762C239 3.78221 236.913 8.96793 238.571 14.1604C239.457 16.9356 242.439 19.851 245.218 20.6578C250.235 22.1143 255.234 19.9857 257.687 15.3476C258.927 13.0038 259.019 8.79857 257.885 6.33273C256.107 2.46831 253.235 0.611434 248.742 0.421617C246.149 0.312244 245.733 0.39445 243.7 1.41762ZM252.335 2.16454C254.542 3.20359 256.548 5.57523 257.245 7.97016C259.387 15.3285 252.525 22.0162 245.341 19.5715C239.274 17.5072 237.129 9.57513 241.316 4.69036C244.276 1.23733 248.37 0.298838 252.335 2.16454ZM243.619 10.4081V15.8768H245.386H247.152V14.2891C247.152 12.2336 247.739 12.2336 249.04 14.2898L250.044 15.8768H252.152C254.457 15.8768 254.43 15.9721 252.77 13.6653L251.812 12.3356L252.838 11.311C254.629 9.52256 253.984 6.12457 251.703 5.33038C251.085 5.11551 249.014 4.93945 247.1 4.93945H243.619V10.4081ZM249.649 8.12716C251.053 8.87796 250.03 10.2317 248.059 10.2317C247.258 10.2317 247.152 10.0874 247.152 8.99686C247.152 7.9063 247.258 7.762 248.059 7.762C248.557 7.762 249.273 7.92641 249.649 8.12716ZM141.746 131.688C141.237 135.418 129.766 250.523 129.893 250.632C129.971 250.699 136.792 251.016 145.05 251.336C153.308 251.655 161.454 252.012 163.152 252.128L166.239 252.339L166.332 240.041L166.425 227.744L181.263 226.47C189.424 225.77 196.215 225.296 196.353 225.416C196.492 225.537 197.76 231.569 199.172 238.819L201.74 252.002L205.457 251.792C207.501 251.676 215.971 251.388 224.279 251.152C237.698 250.77 239.366 250.661 239.211 250.171C239.115 249.867 232.379 222.787 224.243 189.993L209.45 130.366L175.701 130.276L141.951 130.186L141.746 131.688ZM17.5111 133.735C8.47556 134.87 0.963466 135.807 0.817909 135.817C0.672352 135.827 0.552938 162.028 0.552938 194.041L0.552938 252.247L1.5245 252.072C2.05903 251.975 10.2558 250.726 19.7396 249.296C29.2238 247.866 37.0468 246.633 37.1242 246.556C37.2015 246.479 36.7946 244.387 36.2201 241.908C35.6456 239.428 35.1758 237.016 35.1758 236.546C35.1758 235.79 39.1044 213.177 40.6893 204.811C41.0761 202.768 41.7785 200.657 42.6578 198.892L44.0251 196.149L45.9463 197.481L47.8675 198.813L47.8809 205.28L47.8944 211.748L56.998 225.744C65.0595 238.137 66.2148 240.093 67.0885 242.826C67.8827 245.31 68.2261 245.942 68.8486 246.07C70.0364 246.315 119.352 250.173 119.493 250.033C119.689 249.837 124.181 132.165 124 131.984C123.823 131.806 79.3722 136.373 79.1973 136.587C79.1383 136.658 79.783 148.134 80.6299 162.087C81.4767 176.041 82.0854 187.543 81.9819 187.646C81.8788 187.749 81.5735 187.525 81.3033 187.149C81.0333 186.772 70.9652 174.16 58.9295 159.121L37.0468 131.778L35.493 131.724C34.6384 131.694 26.5466 132.599 17.5111 133.735ZM171.888 156.275C172.089 156.65 172.269 157.643 172.288 158.48C172.307 159.318 172.515 160.797 172.75 161.767L173.178 163.531L173.656 160.356C174.293 156.122 174.534 155.516 175.52 155.657C176.197 155.753 176.45 156.259 177.25 159.121C178.315 162.931 178.776 162.797 178.785 158.676C178.789 156.692 178.897 156.256 179.425 156.088C181.041 155.577 181.657 157.716 180.883 161.148C180.587 162.459 180.155 164.881 179.921 166.53C179.539 169.229 179.416 169.54 178.694 169.643C177.748 169.777 177.296 168.86 176.289 164.766L175.638 162.12L175.382 163.884C174.844 167.601 174.523 168.764 173.933 169.135C172.857 169.813 172.051 168.437 171.059 164.231C169.822 158.981 169.615 157.268 170.106 156.351C170.611 155.409 171.406 155.375 171.888 156.275ZM188.476 156.244C188.999 157.219 188.275 157.71 186.315 157.71H184.619V160.179V162.649H185.867C186.699 162.649 187.189 162.842 187.337 163.229C187.609 163.938 186.584 164.766 185.435 164.766C184.738 164.766 184.619 164.946 184.619 166.001V167.236H186.409C188.153 167.236 188.196 167.26 188.087 168.206C187.977 169.168 187.954 169.176 185.326 169.176H182.676L182.43 165.824C182.295 163.981 182.276 161.012 182.389 159.227L182.593 155.983L183.871 155.847C187.149 155.499 188.122 155.583 188.476 156.244ZM177.517 174.783C178.551 175.882 178.462 177.997 177.381 177.997C176.964 177.997 176.491 177.603 176.214 177.026C175.958 176.493 175.607 176.056 175.434 176.056C175.084 176.056 174.02 177.459 174.02 177.92C174.02 178.082 174.793 179.039 175.738 180.047C177.885 182.335 178.26 183.052 178.26 184.87C178.26 188.645 173.082 189.333 171.886 185.715C171.373 184.163 171.662 183.382 172.694 183.529C173.195 183.6 173.678 184.067 173.996 184.788C174.53 186.001 175.02 186.207 175.716 185.512C176.522 184.707 176.132 183.792 174.02 181.525C171.713 179.047 171.455 178.157 172.397 175.904C172.999 174.468 173.788 173.964 175.46 173.95C176.345 173.942 176.961 174.192 177.517 174.783ZM185.183 174.891C185.878 175.641 186.044 176.146 185.961 177.273C185.868 178.534 185.752 178.702 184.972 178.702C184.237 178.702 184.06 178.501 183.913 177.495C183.71 176.115 183.175 175.785 182.396 176.562C181.452 177.506 181.19 184.246 182.043 185.688C182.353 186.214 183.186 185.163 183.413 183.959C183.769 182.063 185.68 182.525 185.678 184.506C185.673 187.623 181.991 189.23 180.238 186.88C179.634 186.07 179.473 185.262 179.373 182.526C179.305 180.678 179.358 178.441 179.491 177.554C179.985 174.265 183.204 172.759 185.183 174.891ZM194.146 174.622C194.568 175.409 194.599 180.408 194.205 183.957C193.979 185.989 193.775 186.526 192.966 187.221C191.692 188.315 189.914 188.317 188.644 187.226C187.497 186.242 187.195 184.333 187.24 178.356C187.266 174.875 187.336 174.468 187.925 174.354C188.285 174.283 188.724 174.369 188.899 174.544C189.074 174.719 189.29 177.144 189.38 179.934C189.507 183.885 189.664 185.126 190.091 185.553C190.509 185.97 190.783 186.008 191.25 185.715C191.778 185.383 191.874 184.612 191.954 180.076C192.004 177.186 192.118 174.623 192.208 174.38C192.458 173.699 193.737 173.859 194.146 174.622ZM201.54 174.424C202.119 175.12 201.638 176.056 200.7 176.056C200.26 176.056 199.402 176.155 198.795 176.277C197.697 176.496 197.691 176.51 197.691 178.746V180.996H198.939C199.726 180.996 200.262 181.193 200.391 181.529C200.697 182.325 199.86 183.113 198.708 183.113C197.781 183.113 197.691 183.222 197.691 184.347C197.691 185.567 197.709 185.582 199.21 185.582C200.963 185.582 201.702 186.102 201.222 186.997C200.867 187.659 197.748 188.189 196.358 187.824L195.556 187.613L195.652 181.041L195.748 174.469L197.514 174.259C200.543 173.901 201.125 173.924 201.54 174.424ZM162.247 175.428C163.616 176.796 163.777 179.189 162.618 180.938L161.722 182.29L162.547 183.343C163.097 184.045 163.41 184.977 163.485 186.136C163.592 187.782 163.551 187.876 162.723 187.876C162.056 187.876 161.776 187.625 161.541 186.817C160.615 183.639 159.538 182.915 159.53 185.465C159.524 187.469 159.171 188.169 158.256 187.994C157.649 187.878 157.568 187.33 157.309 181.557C157.154 178.087 157.117 175.013 157.227 174.726C157.572 173.827 161.143 174.326 162.247 175.428ZM170.43 175.132C170.604 176.044 169.904 176.397 167.91 176.404L166.216 176.409L166.32 178.791C166.419 181.051 166.469 181.175 167.308 181.225C167.794 181.255 168.39 181.294 168.633 181.314C169.195 181.358 169.207 182.486 168.65 183.042C168.417 183.275 167.781 183.465 167.237 183.465C166.216 183.465 166.094 183.739 166.478 185.167C166.653 185.821 166.867 185.945 167.532 185.778C168.933 185.427 170.134 185.907 170.134 186.817C170.134 187.261 169.883 187.72 169.575 187.838C168.588 188.216 164.99 188.066 164.552 187.629C164.255 187.332 164.128 185.376 164.128 181.09C164.128 173.989 163.967 174.266 168.011 174.395C169.941 174.457 170.323 174.573 170.43 175.132ZM159.182 178.526C159.182 180.785 159.464 181.067 160.595 179.937C161.442 179.091 161.511 177.727 160.747 176.963C159.618 175.836 159.182 176.272 159.182 178.526ZM207.006 193.017C208.104 193.879 208.327 195.942 207.362 196.311C206.708 196.562 205.817 195.957 205.817 195.263C205.817 194.463 205.095 194.307 204.381 194.952C203.311 195.919 203.563 196.848 205.32 198.42C207.212 200.112 207.937 201.345 207.937 202.876C207.937 205.068 206.718 206.37 204.653 206.387C203.133 206.4 201.76 205.309 201.377 203.783C200.823 201.581 202.668 200.954 203.543 203.047C204.099 204.375 204.753 204.608 205.478 203.735C206.069 203.023 205.184 201.049 203.894 200.205C202.654 199.393 201.577 197.531 201.577 196.196C201.577 194.871 202.385 193.174 203.255 192.667C204.273 192.075 206.014 192.238 207.006 193.017ZM163.877 193.144C164.156 193.422 164.493 194.332 164.626 195.167C164.76 196.001 165.268 198.067 165.755 199.759C166.306 201.669 166.6 203.476 166.533 204.528C166.434 206.071 166.346 206.222 165.541 206.222C164.776 206.222 164.644 206.046 164.549 204.899C164.442 203.618 164.396 203.576 163.078 203.576C161.766 203.576 161.709 203.626 161.478 204.987C161.277 206.178 161.106 206.399 160.387 206.399C159.627 206.399 159.535 206.245 159.535 204.967C159.535 204.18 159.688 202.87 159.874 202.056C160.06 201.243 160.552 198.989 160.968 197.049C161.838 192.985 162.64 191.909 163.877 193.144ZM170.268 193.432C170.544 193.869 171.133 195.369 171.576 196.766C172.019 198.163 172.519 199.22 172.688 199.116C172.857 199.011 172.966 197.69 172.929 196.18C172.893 194.67 172.974 193.255 173.109 193.036C173.491 192.42 174.657 192.567 174.876 193.259C175.211 194.313 174.995 205.49 174.631 205.958C174.158 206.564 173.14 206.511 172.593 205.852C172.343 205.552 171.697 204.083 171.156 202.588L170.174 199.871L170.154 202.032C170.12 205.767 169.579 207.146 168.427 206.435C167.959 206.147 167.696 193.792 168.142 193.071C168.572 192.376 169.722 192.572 170.268 193.432ZM182.258 198.472C183.712 204.28 183.784 205.846 182.615 206.294C181.911 206.564 181.086 205.525 181.086 204.369C181.086 203.619 180.95 203.545 179.761 203.643C178.544 203.744 178.422 203.852 178.26 204.987C178.126 205.926 177.896 206.249 177.301 206.333C176.271 206.479 175.916 205.136 176.45 203.12C176.667 202.304 177.179 199.975 177.589 197.947C178.604 192.913 178.757 192.567 179.904 192.704C180.805 192.811 180.895 193.033 182.258 198.472ZM187.006 193.08C187.201 193.322 187.817 194.937 188.375 196.667L189.389 199.813L189.565 196.314C189.741 192.828 189.745 192.815 190.693 192.705C191.525 192.609 191.671 192.743 191.849 193.764C191.961 194.406 191.931 197.472 191.781 200.577C191.517 206.048 191.484 206.226 190.723 206.334C189.728 206.475 188.799 205.032 187.707 201.654L186.916 199.202L186.739 202.712C186.565 206.174 186.55 206.222 185.679 206.222H184.796L184.757 200.048C184.735 196.652 184.785 193.595 184.869 193.256C185.045 192.536 186.475 192.418 187.006 193.08ZM197.908 193.609C198.034 194.143 198.594 196.357 199.151 198.529C200.316 203.071 200.475 205.851 199.589 206.19C198.763 206.507 198.044 205.767 198.044 204.598C198.044 203.817 197.845 203.54 197.162 203.368C195.84 203.037 195.218 203.425 195.218 204.58C195.218 205.781 194.501 206.508 193.642 206.179C193.16 205.994 193.066 205.616 193.181 204.32C193.391 201.942 195.223 193.595 195.648 193.08C195.848 192.837 196.386 192.639 196.844 192.639C197.462 192.639 197.737 192.889 197.908 193.609ZM156.383 194.023C157.486 195.125 157.772 196.959 157.051 198.306C156.765 198.838 156.858 199.219 157.475 200.052C158.993 202.104 158.218 204.531 155.612 205.886C154.562 206.431 152.114 206.657 151.481 206.266C151.175 206.077 151.056 204.182 151.056 199.498V192.991H153.203C155.105 192.991 155.468 193.109 156.383 194.023ZM153.176 197.28V199.452L153.923 198.779C155.496 197.365 155.464 195.108 153.87 195.108C153.255 195.108 153.176 195.356 153.176 197.28ZM179.558 198.593C179.133 200.719 179.253 201.459 180.026 201.459C180.415 201.459 180.726 201.42 180.718 201.371C180.71 201.322 180.499 200.41 180.25 199.343C179.799 197.413 179.795 197.409 179.558 198.593ZM162.722 198.284C162.714 198.575 162.609 199.408 162.488 200.136C162.291 201.326 162.346 201.459 163.038 201.459C163.733 201.459 163.784 201.332 163.569 200.136C163.292 198.593 162.746 197.401 162.722 198.284ZM196.582 198.107C196.466 198.301 196.263 199.056 196.132 199.783C195.919 200.959 195.973 201.106 196.615 201.106C197.376 201.106 197.442 200.735 197.023 198.813C196.896 198.231 196.698 197.913 196.582 198.107ZM153.971 201.47C153.177 201.789 153.011 202.507 153.466 203.652C153.671 204.167 153.833 204.194 154.555 203.829C155.638 203.28 156.176 202.419 155.893 201.683C155.648 201.045 155.164 200.991 153.971 201.47ZM96.4723 255.817C85.0079 256.165 74.7313 256.499 73.6354 256.562L71.6428 256.675L74.0416 264.377C75.3612 268.613 76.7454 272.423 77.1178 272.844C77.4902 273.266 80.8736 277.024 84.6369 281.196C88.4002 285.368 91.788 289.131 92.166 289.558C92.8489 290.33 92.8461 290.358 91.6933 294.585C91.0552 296.924 90.3705 298.837 90.1716 298.837C89.9727 298.837 84.4871 296.813 77.9819 294.338L66.1537 289.84L54.2858 279.149L42.4183 268.458L41.5485 264.772L40.6783 261.085L35.5425 261.074C32.7175 261.068 23.7361 260.916 15.5835 260.735C7.43087 260.555 0.699203 260.469 0.624305 260.544C0.49182 260.676 1.60858 381.856 1.74354 381.995C1.91948 382.176 40.6903 377.028 40.9588 376.788C41.2192 376.556 40.6451 346.532 39.9269 322.828C39.7311 316.358 39.735 316.308 40.4102 317.079C40.785 317.506 50.1883 330.724 61.3065 346.452C75.2566 366.186 81.7579 375.103 82.2844 375.227C84.4501 375.733 120.44 381.394 120.583 381.251C120.779 381.055 119.708 274.57 119.393 262.938L119.181 255.087L118.249 255.137C117.736 255.164 107.937 255.47 96.4723 255.817ZM144.697 259.093C144.697 259.365 140.647 286.946 135.699 320.385C130.749 353.823 126.735 381.209 126.778 381.241C126.934 381.36 162.543 380.237 162.691 380.108C162.774 380.035 164.098 372.953 165.633 364.369C167.168 355.786 168.451 348.738 168.484 348.706C168.759 348.441 197.338 348.199 197.338 348.46C197.338 349.107 203.007 378.355 203.163 378.511C203.374 378.721 241.914 379.689 242.114 379.489C242.263 379.34 216.803 260.699 216.563 260.426C216.5 260.354 203.524 260.01 187.727 259.661C171.93 259.312 155.786 258.93 151.851 258.812C145.848 258.633 144.697 258.678 144.697 259.093ZM258.135 260.249C248.728 260.708 240.96 261.153 240.875 261.239C240.716 261.397 246.984 349.264 247.351 352.029L247.55 353.534L257.843 353.441L268.134 353.347L273.526 307.304C276.49 281.981 278.924 260.825 278.933 260.292C278.952 259.12 281.191 259.125 258.135 260.249ZM247.012 363.667C247.091 364.783 247.315 369.017 247.509 373.076C247.702 377.136 247.899 380.482 247.948 380.512C248.179 380.66 267.994 378.694 268.183 378.505C268.4 378.288 267.765 364.936 267.434 362.785L267.258 361.638H257.062H246.866L247.012 363.667Z" fill="#46281F"/>
</svg>
