<svg width="253" height="507" viewBox="0 0 253 507" fill="none" xmlns="http://www.w3.org/2000/svg">
<path d="M253 214.106C253 214.211 251.015 222.884 251.015 222.884C250.806 223.824 249.553 224.033 249.031 223.197L238.271 207.001C237.749 206.269 236.6 206.896 237.018 207.732L246.001 225.078C246.419 225.809 245.897 226.645 245.061 226.645L238.48 226.645C238.062 226.645 237.749 226.436 237.54 226.123L221.349 200.104L217.171 193.417C217.171 193.417 208.187 182.654 208.187 182.549C207.247 181.295 201.188 171.786 182.072 166.248C182.072 166.248 190.325 167.711 200.144 178.997C209.649 189.759 216.23 197.492 222.289 207.732C223.02 208.986 221.244 210.135 220.409 208.881C219.678 207.732 218.842 208.255 219.364 209.404L231.899 227.168C232.004 227.481 227.199 232.183 227.094 232.497L222.811 231.87L216.753 230.512L220.722 227.481L215.604 227.795L219.364 222.779L216.439 222.57L209.336 222.257L217.797 217.032L215.708 215.674L209.858 215.987L214.872 209.09L211.321 204.597L205.053 207.314C198.577 199.895 201.397 196.76 198.054 193.626C194.398 190.177 183.639 173.563 183.639 173.563C178.416 167.084 172.984 168.652 170.268 170.115C169.433 170.533 169.433 171.682 170.268 172.1C171.94 172.831 174.342 172.413 176.745 174.712C181.028 178.788 181.028 186.102 182.072 191.013C182.908 194.879 182.803 201.045 185.415 199.895C185.937 199.686 186.355 200.627 186.877 200.418C187.4 200.209 188.131 199.791 188.862 199.373C190.325 198.432 194.712 200.209 196.801 205.642C198.681 210.449 197.01 219.958 196.801 220.689L196.801 220.794C196.592 221.525 195.13 228.004 194.398 230.512C193.563 233.228 192.1 235.841 191.474 239.707C190.847 243.573 188.758 243.051 187.609 246.186C186.46 249.32 183.43 252.351 181.759 251.724C180.088 251.097 178.416 247.23 178.103 246.081C177.789 244.827 173.924 241.379 170.686 239.811C168.075 238.453 163.687 226.959 162.016 216.614C160.763 208.881 164.314 203.134 165.463 200.731C165.777 200.104 166.612 199.895 167.135 200.313L168.597 201.358C169.119 201.671 169.746 201.671 170.164 201.149L171.104 200C171.626 199.373 172.566 199.477 172.984 200.209L174.447 203.134C174.656 202.507 175.282 201.462 176.536 199.268C179.983 193.521 178.416 161.337 162.329 178.474C147.392 194.461 130.052 265.935 128.798 275.653C116.054 376.488 118.039 469.801 119.606 506.896L102.579 506.896C101.534 294.984 129.738 215.778 140.602 193.208C94.9533 280.355 92.3419 456.843 92.6552 506.896L76.8819 506.896C75.315 371.995 100.281 269.801 100.281 269.801C114.487 213.166 144.363 172.831 146.243 163.949C148.019 155.59 137.259 158.62 135.901 159.038C135.797 159.038 135.692 159.143 135.692 159.143C134.126 160.188 116.472 171.786 114.383 171.682C112.189 171.577 105.922 170.115 103.415 172.309C100.908 174.503 102.161 184.953 94.0132 182.549C89.9393 181.295 87.3278 180.773 85.8654 180.459C85.0297 180.355 84.2985 181.191 84.7164 182.027L89.7304 193.417C89.9393 193.835 89.8349 194.461 89.417 194.775L86.5966 196.969C86.0743 197.387 85.4476 197.283 85.0297 196.76L76.2552 186.102C75.9418 185.789 75.4195 185.58 75.0017 185.789L73.2259 186.415C72.4946 186.624 72.2857 187.565 72.7036 188.087L80.9558 199.059C81.2692 199.477 81.2692 200 80.9558 200.313L80.6425 200.836C80.2246 201.462 79.3889 201.462 78.8667 200.94L69.9876 190.282C69.5698 189.759 68.7341 189.759 68.3163 190.282L67.2717 191.536C66.9583 191.954 66.9583 192.476 67.1672 192.894L76.1507 206.269C76.3596 206.583 76.3596 207.105 76.1507 207.419L71.3456 215.465C71.2411 215.674 71.0322 215.778 70.8233 215.883C69.4653 216.509 64.2424 218.704 63.8245 218.39C63.4067 218.077 50.2449 208.046 49.4092 207.732C48.678 207.419 49.7226 212.016 49.9315 212.852C49.9315 212.957 49.9315 213.061 50.0359 213.061L55.9901 224.66C56.5124 225.705 55.2589 226.75 54.3188 226.018L43.5595 217.659C43.0372 217.241 42.306 217.45 41.9926 218.077C41.8881 218.39 41.8881 218.808 42.0971 219.017L47.32 226.332C48.0512 227.377 46.6933 228.631 45.7531 227.795L40.2168 223.093C39.9034 222.779 39.3811 222.779 38.9633 222.988L38.3365 223.302C37.9187 223.615 37.7098 224.137 37.9187 224.66C39.1722 228.108 47.0066 239.498 45.2308 240.543C44.4996 240.961 38.1276 230.407 36.1429 227.168C35.8295 226.75 35.3072 226.541 34.7849 226.75L34.1582 226.959C33.8448 227.063 33.6358 227.272 33.5314 227.586L32.3823 230.721C32.2779 231.034 32.2779 231.452 32.4868 231.765L40.4257 243.573C40.6346 243.991 40.6346 244.514 40.4257 244.827L40.1123 245.245C39.7989 245.768 39.0677 245.872 38.5454 245.454L31.9645 240.752C31.0244 240.02 29.7709 241.17 30.3976 242.215C32.3823 245.454 34.6804 249.111 34.6804 249.738C34.7849 250.783 26.0103 245.245 24.8613 244.723C23.9212 244.305 27.8906 250.261 29.4575 252.455C29.7709 252.978 29.6664 253.604 29.2486 253.918L23.9212 258.098C12.1173 247.439 15.46 236.781 15.46 236.781C15.3555 236.468 15.9823 233.855 16.1912 233.542C44.9174 190.909 80.6425 164.367 90.8795 158.516C97.6693 154.65 112.502 151.41 122.217 149.425C123.575 149.111 123.157 147.962 121.799 148.067C110.936 149.32 99.9674 149.947 82.5227 159.247C62.2577 170.115 25.2791 212.434 17.2358 220.689C16.609 221.421 12.5351 225.705 12.5351 224.764C12.5351 224.764 -17.6536 228.213 15.46 181.504C17.8625 178.161 35.6206 158.202 65.3914 135.736C97.5648 111.39 122.739 130.616 132.559 139.603C142.482 148.589 145.929 144.827 149.377 141.275C152.301 138.244 148.75 133.856 147.705 132.706C147.496 132.497 147.287 132.393 146.974 132.393L137.886 131.557C137.677 131.557 137.468 131.452 137.259 131.348L131.305 126.332C131.201 126.228 131.096 126.123 131.096 126.123L118.143 105.538C117.725 104.911 118.039 104.18 118.666 103.971L131.827 98.7459C133.081 98.2234 132.559 96.447 131.305 96.656C123.993 97.7009 114.696 98.9549 114.383 99.0594C113.965 99.1638 108.011 89.5505 105.922 86.2067C105.504 85.5798 105.817 84.8483 106.548 84.5348L129.425 77.1158C130.261 76.8023 130.469 75.6529 129.738 75.1305L127.336 73.5631C127.127 73.4586 126.813 73.3541 126.604 73.3541C123.471 73.772 103.728 76.1754 102.788 76.1754C102.057 76.1754 98.7139 66.8755 97.5648 63.7407C97.3559 63.2183 97.6693 62.5913 98.1916 62.3823C102.474 60.9194 118.457 55.3813 118.666 55.0678C118.874 54.8588 118.457 54.1274 118.143 53.6049C117.934 53.2914 117.725 53.0824 117.308 53.0824L91.0884 49.5297C90.6705 49.4252 90.3572 49.2162 90.1483 48.7982L82.5227 26.0187C82.5227 25.9143 82.4183 25.8098 82.4183 25.7053L82.2094 5.12014C82.2094 4.59768 82.5227 4.17971 83.045 4.07521L95.4757 1.46289C95.8935 1.3584 96.4158 1.56738 96.6247 1.98535L114.069 29.258C114.174 29.3625 114.174 29.467 114.174 29.676C114.278 30.1985 114.592 30.6164 118.352 36.3636C122.531 42.9466 132.663 64.2632 134.334 69.4878C135.797 74.19 144.676 99.1638 145.198 100.627C145.198 100.627 145.198 100.731 145.303 100.731C145.929 101.672 153.346 114.733 152.824 138.035C152.824 138.035 152.824 138.035 152.824 138.14C152.719 138.976 151.361 154.963 154.077 155.068C156.898 155.172 156.062 138.558 155.644 133.96C155.226 129.676 153.868 120.794 153.764 119.853C153.764 119.749 149.377 103.344 149.377 103.239L130.156 51.933L124.411 31.8704C124.411 31.6614 124.306 31.5569 124.411 31.3479L128.589 0.731442C128.694 0.31347 129.007 -0.104502 129.529 -0.208995L152.928 3.97073C153.346 3.86623 153.659 4.07522 153.973 4.3887L169.746 23.8244C170.164 24.3469 170.059 25.1828 169.433 25.4963L155.017 33.7512C154.182 34.2737 154.286 35.5276 155.226 35.7366L169.119 39.7073C169.537 39.8118 169.746 40.1253 169.851 40.5433L172.984 53.5004C173.089 54.0229 172.88 54.4408 172.462 54.7543L158.256 63.0093C157.524 63.4272 157.524 64.5767 158.36 64.9946L172.566 71.3687C172.984 71.5777 173.193 71.8912 173.193 72.4136L173.193 83.9079C173.193 84.3258 172.88 84.7438 172.566 84.9528L161.703 89.5505C160.867 89.864 160.763 91.0134 161.494 91.5359L168.179 95.9246C168.493 96.1336 168.701 96.447 168.701 96.865L168.493 109.718C168.493 109.822 168.493 110.031 168.388 110.136L160.972 127.168C160.972 127.272 160.972 127.272 160.867 127.377C160.658 128.317 158.778 136.572 162.434 146.186C166.194 156.322 163.687 159.143 171.313 157.471C172.671 157.157 197.428 157.68 197.428 157.68L227.825 170.115L230.437 173.249L242.45 187.983L249.239 196.342L253 214.106Z" fill="#5B3529"/>
</svg>
