<svg width="433" height="868" viewBox="0 0 433 868" fill="none" xmlns="http://www.w3.org/2000/svg">
<path d="M433 366.556C433 366.735 429.603 381.584 429.603 381.584C429.246 383.194 427.1 383.551 426.206 382.12L407.792 354.391C406.898 353.139 404.932 354.213 405.647 355.644L421.022 385.34C421.737 386.593 420.843 388.024 419.413 388.024L408.15 388.024C407.435 388.024 406.898 387.666 406.541 387.129L378.83 342.584L371.679 331.135C371.679 331.135 356.304 312.709 356.304 312.53C354.695 310.383 344.326 294.104 311.61 284.622C311.61 284.622 325.733 287.127 342.538 306.448C358.807 324.874 370.07 338.112 380.439 355.644C381.691 357.79 378.651 359.758 377.221 357.612C375.97 355.644 374.54 356.538 375.434 358.506L396.887 388.918C397.066 389.455 388.842 397.505 388.663 398.042L381.333 396.969L370.964 394.643L377.758 389.455L368.997 389.992L375.433 381.405L370.428 381.047L358.271 380.51L372.752 371.565L369.176 369.24L359.165 369.776L367.746 357.969L361.668 350.277L350.941 354.928C339.857 342.227 344.684 336.86 338.963 331.493C332.706 325.589 314.291 297.145 314.291 297.145C305.353 286.053 296.056 288.737 291.408 291.241C289.978 291.957 289.978 293.925 291.408 294.64C294.268 295.893 298.38 295.177 302.492 299.113C309.822 306.09 309.822 318.612 311.61 327.02C313.04 333.64 312.861 344.194 317.331 342.227C318.225 341.869 318.94 343.479 319.834 343.121C320.727 342.763 321.979 342.048 323.23 341.332C325.733 339.722 333.242 342.763 336.817 352.066C340.035 360.295 337.175 376.574 336.817 377.827L336.817 378.006C336.46 379.258 333.957 390.349 332.706 394.643C331.275 399.294 328.772 403.767 327.7 410.386C326.627 417.005 323.052 416.11 321.085 421.477C319.118 426.844 313.934 432.032 311.073 430.959C308.213 429.885 305.353 423.266 304.816 421.298C304.28 419.152 297.665 413.248 292.123 410.565C287.654 408.239 280.145 388.56 277.284 370.85C275.139 357.612 281.218 347.772 283.184 343.658C283.72 342.584 285.151 342.227 286.045 342.942L288.547 344.731C289.441 345.268 290.514 345.268 291.229 344.373L292.838 342.405C293.732 341.332 295.341 341.511 296.056 342.763L298.559 347.772C298.917 346.699 299.989 344.91 302.135 341.153C308.034 331.314 305.353 276.214 277.821 305.553C252.256 332.924 222.578 455.288 220.433 471.926C198.622 644.56 202.019 804.313 204.701 867.821L175.56 867.821C173.772 505.021 222.042 369.419 240.635 330.777C162.509 479.976 158.04 782.13 158.576 867.821L131.58 867.821C128.899 636.867 171.627 461.908 171.627 461.908C195.941 364.946 247.071 295.893 250.289 280.687C253.328 266.375 234.914 271.563 232.59 272.279C232.411 272.279 232.232 272.457 232.232 272.457C229.551 274.246 199.337 294.104 195.762 293.925C192.007 293.746 181.281 291.241 176.99 294.998C172.699 298.755 174.845 316.645 160.9 312.53C153.928 310.383 149.458 309.489 146.955 308.952C145.525 308.773 144.274 310.204 144.989 311.635L153.57 331.135C153.928 331.851 153.749 332.924 153.034 333.461L148.207 337.218C147.313 337.933 146.24 337.754 145.525 336.86L130.508 318.612C129.972 318.076 129.078 317.718 128.363 318.076L125.323 319.149C124.072 319.507 123.714 321.117 124.429 322.011L138.553 340.795C139.089 341.511 139.089 342.405 138.553 342.942L138.017 343.837C137.301 344.91 135.871 344.91 134.977 344.016L119.781 325.768C119.066 324.874 117.636 324.874 116.921 325.768L115.133 327.915C114.597 328.631 114.597 329.525 114.954 330.241L130.329 353.139C130.687 353.676 130.687 354.57 130.329 355.107L122.105 368.882C121.927 369.24 121.569 369.419 121.211 369.598C118.887 370.671 109.948 374.428 109.233 373.891C108.518 373.354 85.9922 356.18 84.562 355.644C83.3105 355.107 85.0983 362.978 85.4558 364.41C85.4558 364.588 85.4558 364.767 85.6346 364.767L95.8249 384.625C96.7188 386.414 94.5735 388.203 92.9645 386.95L74.5504 372.639C73.6565 371.923 72.4051 372.281 71.8687 373.354C71.6899 373.891 71.6899 374.607 72.0475 374.964L80.9864 387.487C82.2379 389.276 79.9137 391.423 78.3047 389.992L68.8295 381.941C68.2931 381.405 67.3993 381.405 66.6842 381.762L65.6115 382.299C64.8964 382.836 64.5388 383.73 64.8964 384.625C67.0417 390.528 80.4501 410.028 77.4108 411.817C76.1594 412.532 65.2539 394.464 61.8571 388.918C61.3208 388.203 60.4269 387.845 59.533 388.203L58.4604 388.56C57.924 388.739 57.5665 389.097 57.3877 389.634L55.4211 395.001C55.2424 395.537 55.2424 396.253 55.5999 396.79L69.187 417.005C69.5446 417.72 69.5446 418.615 69.187 419.152L68.6507 419.867C68.1144 420.762 66.8629 420.94 65.969 420.225L54.706 412.175C53.097 410.922 50.9517 412.89 52.0243 414.679C55.4211 420.225 59.3543 426.486 59.3543 427.56C59.533 429.349 44.5157 419.867 42.5492 418.973C40.9401 418.257 47.7337 428.454 50.4154 432.211C50.9517 433.105 50.7729 434.179 50.0578 434.715L40.9401 441.871C20.7382 423.624 26.4591 405.377 26.4591 405.377C26.2804 404.84 27.353 400.368 27.7106 399.831C76.8745 326.842 138.017 281.402 155.537 271.384C167.157 264.765 192.544 259.219 209.17 255.82C211.494 255.283 210.779 253.316 208.455 253.495C189.862 255.641 171.09 256.715 141.235 272.636C106.552 291.241 43.2643 363.694 29.4984 377.827C28.4257 379.079 21.4534 386.414 21.4534 384.804C21.4534 384.804 -30.2134 390.707 26.4591 310.741C30.571 305.016 60.9633 270.847 111.915 232.385C166.979 190.702 210.064 223.619 226.869 239.004C243.853 254.389 249.753 247.949 255.652 241.866C260.658 236.678 254.58 229.165 252.792 227.197C252.434 226.839 252.077 226.66 251.54 226.66L235.987 225.229C235.629 225.229 235.272 225.05 234.914 224.871L224.724 216.284C224.545 216.105 224.366 215.926 224.366 215.926L202.198 180.684C201.483 179.611 202.019 178.358 203.092 178.001L225.618 169.056C227.763 168.161 226.869 165.12 224.724 165.478C212.209 167.267 196.298 169.414 195.762 169.593C195.047 169.772 184.856 153.313 181.281 147.588C180.566 146.515 181.102 145.263 182.353 144.726L221.506 132.025C222.936 131.488 223.294 129.52 222.042 128.626L217.93 125.942C217.573 125.763 217.036 125.584 216.679 125.584C211.315 126.3 177.526 130.415 175.917 130.415C174.666 130.415 168.945 114.493 166.979 109.126C166.621 108.232 167.157 107.158 168.051 106.8C175.381 104.296 202.734 94.8144 203.092 94.2777C203.449 93.9199 202.734 92.6676 202.198 91.7732C201.84 91.2365 201.483 90.8787 200.768 90.8787L155.894 84.7962C155.179 84.6173 154.643 84.2596 154.285 83.544L141.235 44.5448C141.235 44.3659 141.056 44.187 141.056 44.0081L140.698 8.76572C140.698 7.87125 141.235 7.15567 142.128 6.97677L163.403 2.50439C164.118 2.3255 165.012 2.68329 165.37 3.39887L195.225 50.0905C195.404 50.2694 195.404 50.4483 195.404 50.8061C195.583 51.7006 196.119 52.4162 202.555 62.2554C209.706 73.5258 227.048 110.02 229.908 118.965C232.411 127.016 247.607 169.772 248.501 172.276C248.501 172.276 248.501 172.455 248.68 172.455C249.753 174.065 262.446 196.427 261.552 236.321C261.552 236.321 261.552 236.321 261.552 236.499C261.373 237.931 259.049 265.302 263.697 265.48C268.524 265.659 267.094 237.215 266.379 229.344C265.664 222.009 263.34 206.803 263.161 205.193C263.161 205.014 255.652 176.927 255.652 176.748L222.757 88.9108L212.924 54.5629C212.924 54.2051 212.746 54.0262 212.924 53.6685L220.076 1.25213C220.254 0.536548 220.791 -0.179033 221.685 -0.357929L261.731 6.79789C262.446 6.61899 262.982 6.97678 263.519 7.51347L290.514 40.788C291.229 41.6825 291.05 43.1136 289.978 43.6503L265.306 57.7831C263.876 58.6775 264.055 60.8243 265.664 61.1821L289.441 67.9801C290.156 68.159 290.514 68.6957 290.693 69.4113L296.056 91.5943C296.235 92.4887 295.877 93.2043 295.162 93.741L270.848 107.874C269.597 108.589 269.597 110.557 271.027 111.273L295.341 122.185C296.056 122.543 296.414 123.08 296.414 123.974L296.414 143.653C296.414 144.368 295.877 145.084 295.341 145.442L276.748 153.313C275.318 153.85 275.139 155.818 276.391 156.712L287.832 164.226C288.369 164.584 288.726 165.12 288.726 165.836L288.369 187.84C288.369 188.019 288.369 188.377 288.19 188.556L275.497 217.715C275.497 217.894 275.497 217.894 275.318 218.073C274.96 219.683 271.742 233.816 278 250.274C284.436 267.627 280.145 272.457 293.196 269.595C295.52 269.058 337.89 269.953 337.89 269.953L389.915 291.241L394.384 296.608L414.943 321.833L426.564 336.144L433 366.556Z" fill="#5B3529"/>
</svg>
