<svg width="304" height="305" viewBox="0 0 304 305" fill="none" xmlns="http://www.w3.org/2000/svg">
<path d="M174.865 51.5001C189.911 51.435 208.832 51.9766 222.325 58.4627C241.423 67.643 250.721 82.5286 261.213 99.7454C277.399 126.309 279.132 151.872 259.977 176.566C252.653 186.008 230.579 204.607 224.177 211.211C204.401 231.613 194.73 239.449 168.236 250.843C153.855 257.029 142.237 260.128 126.847 262.779C115.137 264.795 99.0085 266.825 89.0538 258.424C75.1601 246.698 63.1603 223.288 58.3148 205.775C53.2897 187.613 47.0281 161.419 49.6905 143.103C52.2964 125.177 56.5927 113.889 69.786 100.278C97.3923 71.7993 134.684 51.6738 174.865 51.5001Z" fill="#3DAC48"/>
<path d="M129.781 101.4C129.451 101.1 128.973 100.98 128.383 101.063L127.974 101.142C127.828 101.17 127.711 101.192 127.618 101.18C127.233 101.224 126.853 101.297 126.444 101.376C125.684 101.522 124.959 101.692 124.24 101.89C123.55 102.084 122.796 102.259 122.095 102.394C121.569 102.495 121.095 102.556 120.652 102.611C120.588 102.593 120.529 102.604 120.471 102.616C120.062 102.694 119.71 102.913 119.382 103.098C119.006 103.352 118.752 103.764 118.743 104.19C118.74 104.645 118.941 105.061 119.33 105.35C120.067 105.875 120.815 105.822 121.399 105.709C121.492 105.722 121.58 105.705 121.668 105.688L121.96 105.632C122.34 105.559 122.69 105.491 123.063 105.541C123.103 105.745 123.177 105.973 123.216 106.178C123.38 106.874 123.55 107.598 123.685 108.3C123.848 109.147 123.982 110 124.11 110.824C124.328 112.115 124.552 113.435 124.834 114.745C125.241 116.545 125.741 118.358 126.201 120.117L126.502 121.211C126.667 121.755 126.962 122.183 127.433 122.426C127.77 122.603 128.213 122.7 128.756 122.686L128.843 122.669C128.96 122.647 129.071 122.595 129.142 122.491C129.971 121.604 129.687 120.598 129.545 120.019C129.125 118.464 128.739 116.932 128.292 115.079C128.003 113.893 127.727 112.613 127.45 111.333C126.981 109.211 126.547 107.113 126.136 105.131C126.125 105.073 126.131 104.95 126.138 104.828L126.284 104.8C126.629 104.703 126.916 104.618 127.208 104.562L128.085 104.393C128.353 104.372 128.645 104.315 128.938 104.259L129.201 104.209C129.925 104.039 130.332 103.476 130.303 102.694C130.278 102.092 130.106 101.671 129.781 101.4ZM142.571 115.029C142.481 114.562 142.298 114.082 142.096 113.666C141.378 112.138 140.602 110.62 139.895 109.151L139.446 108.237C139.314 108.02 139.21 107.798 139.107 107.575C138.876 107.165 138.686 106.808 138.52 106.415C138.13 105.49 137.74 104.566 137.379 103.635L136.375 101.253C136.02 100.351 135.568 99.8929 134.487 100.101L134.254 100.146C133.704 100.282 133.317 100.477 133.065 100.738C132.765 101.069 132.639 101.517 132.711 102.049C132.765 102.644 132.725 103.227 132.663 103.846C132.625 104.125 132.594 104.434 132.586 104.709C132.498 106.453 132.473 108.215 132.437 109.919C132.444 110.584 132.427 111.284 132.405 111.955C132.401 112.41 132.433 112.889 132.429 113.344C132.445 114.371 132.45 115.34 132.297 116.278C132.103 117.316 132.253 118.256 132.369 119.173C132.425 119.465 132.458 119.792 132.514 120.085C132.529 120.476 132.719 120.833 133.032 121.045C133.357 121.316 133.771 121.419 134.209 121.334L134.267 121.323C134.998 121.182 135.428 120.585 135.364 119.779C135.355 119.417 135.317 119.061 135.284 118.734C135.224 118.261 135.192 117.782 135.166 117.332C135.139 117.034 135.176 116.755 135.208 116.446C135.202 116.416 135.231 116.411 135.231 116.411L135.933 116.276C137.16 116.04 138.328 115.815 139.519 115.859C139.535 115.946 139.576 115.999 139.587 116.058C139.712 116.549 139.813 117.075 139.886 117.454C139.909 117.571 139.902 117.694 139.919 117.781C139.958 117.986 139.963 118.167 140.031 118.366C140.173 118.945 140.368 119.331 140.688 119.573C141.012 119.844 141.455 119.94 141.958 119.874L142.045 119.857C142.483 119.773 142.824 119.495 142.99 119.099C143.139 118.768 143.177 118.336 143.105 117.805C142.96 116.893 142.78 115.958 142.571 115.029ZM138.198 112.931L135.785 113.304L135.464 113.366C135.34 111.936 135.335 108.604 135.479 106.516C136.237 108.248 136.971 110.016 137.699 111.755L138.198 112.931ZM153.614 110.026C152.367 108.266 150.923 107.059 149.177 106.335C148.52 106.067 147.829 105.624 147.168 105.024C146.518 104.483 146.174 103.64 146.205 102.695C146.27 101.773 146.679 100.907 147.371 100.41C147.53 100.289 147.699 100.226 147.875 100.192C148.43 100.085 148.935 100.351 149.153 100.855C149.205 100.966 149.257 101.077 149.279 101.194C149.342 101.364 149.411 101.563 149.509 101.756C149.842 102.389 150.581 102.762 151.253 102.633L151.311 102.621C152.036 102.452 152.437 101.859 152.373 101.054C152.319 100.458 152.224 99.9613 152.052 99.5398C151.656 98.5857 150.938 97.8452 149.914 97.4059C149.088 97.0497 148.126 96.9317 147.279 97.0947L147.074 97.1341C145.526 97.432 144.398 98.3457 143.634 99.8865C143.35 100.456 143.194 101.062 143.142 101.739C143.092 102.263 143.105 102.806 143.182 103.519C143.278 104.652 143.577 106.048 144.796 107.026C145.376 107.52 145.979 107.98 146.676 108.452C147.059 108.712 147.472 108.966 147.849 109.196C148.57 109.633 149.226 110.052 149.835 110.541C151.129 111.595 151.611 112.684 151.409 113.995C151.287 114.625 150.634 115.326 149.939 115.49C149.91 115.496 149.915 115.525 149.886 115.531C149.389 115.626 148.744 115.266 148.392 114.697C148.07 114.123 147.839 113.713 147.697 113.285C147.554 112.858 147.282 112.547 146.945 112.37C146.672 112.21 146.357 112.149 145.931 112.14C145.814 112.163 145.721 112.151 145.604 112.173C145.107 112.269 144.86 112.559 144.748 112.762C144.606 112.971 144.469 113.361 144.634 113.905L144.857 114.589L145.046 115.098C145.599 116.871 146.898 117.954 149.088 118.472C149.688 118.599 150.272 118.638 150.798 118.537C151.382 118.424 151.909 118.172 152.35 117.784C152.45 117.674 152.584 117.587 152.719 117.501C152.936 117.368 153.182 117.23 153.388 117.039C153.741 116.668 154.141 116.227 154.308 115.68C154.995 113.578 154.775 111.651 153.614 110.026ZM164.811 94.6613C164.48 94.3613 164.003 94.241 163.413 94.3242L163.004 94.4029C162.858 94.431 162.741 94.4535 162.647 94.4412C162.262 94.485 161.882 94.5581 161.473 94.6368C160.713 94.7829 159.988 94.9527 159.269 95.1516C158.579 95.345 157.825 95.5204 157.124 95.6553C156.598 95.7564 156.125 95.8172 155.681 95.8723C155.617 95.8543 155.558 95.8655 155.5 95.8768C155.091 95.9554 154.739 96.1746 154.411 96.3589C154.036 96.613 153.782 97.0254 153.773 97.4513C153.769 97.9065 153.971 98.3223 154.36 98.6111C155.097 99.1358 155.844 99.083 156.428 98.9705C156.522 98.9829 156.609 98.966 156.697 98.9492L156.989 98.893C157.369 98.8199 157.72 98.7524 158.093 98.8019C158.132 99.0064 158.206 99.2345 158.246 99.4391C158.41 100.135 158.58 100.86 158.714 101.561C158.877 102.408 159.011 103.261 159.139 104.085C159.358 105.376 159.581 106.697 159.863 108.006C160.27 109.806 160.771 111.619 161.23 113.379L161.532 114.472C161.697 115.016 161.991 115.444 162.462 115.687C162.799 115.864 163.242 115.961 163.785 115.947L163.873 115.931C163.989 115.908 164.101 115.856 164.172 115.752C165.001 114.865 164.716 113.859 164.575 113.281C164.154 111.725 163.769 110.194 163.321 108.34C163.033 107.154 162.756 105.874 162.479 104.594C162.011 102.472 161.577 100.374 161.165 98.3926C161.154 98.3342 161.161 98.2117 161.168 98.0892L161.314 98.0611C161.659 97.9644 161.945 97.879 162.237 97.8228L163.114 97.6541C163.383 97.6328 163.675 97.5765 163.967 97.5203L164.23 97.4697C164.955 97.3 165.362 96.7369 165.332 95.9548C165.307 95.3535 165.136 94.9321 164.811 94.6613ZM176.409 93.1876L176.255 92.7021C176.05 91.9537 175.4 91.5637 174.622 91.774C173.669 92.0179 173.46 92.6641 173.457 93.1192L173.46 93.4519C173.434 93.7901 173.425 94.2161 173.527 94.5903C173.766 95.5141 173.642 96.4468 173.501 97.4437L173.47 97.601C173.451 97.8168 173.427 98.0033 173.378 98.2247C173.278 99.1226 173.149 100.026 172.991 100.935C172.949 101.034 172.942 101.157 172.93 101.25L172.893 101.53L172.28 100.708C171.824 100.069 171.339 99.4352 170.888 98.825C170.524 98.3496 170.16 97.8743 169.825 97.3933C169.784 97.3405 169.744 97.2877 169.709 97.2641C169.547 97.0528 169.38 96.8123 169.34 96.6078C169.194 95.8481 168.831 95.2211 168.514 94.676C168.387 94.4884 168.289 94.2951 168.197 94.131C168.099 93.9377 167.925 93.8197 167.709 93.8006C167.342 93.7804 167.097 93.767 166.863 93.8119C166.513 93.8794 166.296 94.012 165.897 94.3009C165.686 94.4627 165.614 94.7189 165.659 94.9527L165.898 95.7247C166.034 96.2743 166.17 96.8238 166.359 97.3329C166.661 98.2746 167.164 98.9961 167.842 99.5321C168.167 99.8029 168.527 100.097 168.682 100.431C169.234 101.567 169.973 102.576 170.678 103.562L171.302 104.442C172.134 105.615 172.524 106.54 172.656 107.545C172.733 108.257 172.844 108.993 173.031 109.806C173.223 110.647 173.474 111.478 173.713 112.25C173.982 113.016 174.614 113.47 175.507 113.541C175.629 113.548 175.746 113.525 175.834 113.508C176.36 113.407 176.736 113.001 176.757 112.482C176.761 112.027 176.671 111.56 176.603 111.209C176.553 110.946 176.479 110.718 176.434 110.484C176.365 110.285 176.331 110.11 176.292 109.905C176.038 108.742 175.807 107.544 175.599 106.463L175.56 106.259C175.526 106.083 175.487 105.879 175.494 105.756C175.563 105.016 175.639 104.304 175.743 103.587C175.744 103.436 175.775 103.278 175.805 103.121C175.868 102.503 175.96 101.879 176.052 101.255C176.252 99.4596 176.505 97.6233 176.763 95.8162C176.881 94.8542 176.654 93.9889 176.409 93.1876ZM182.725 110.94C182.673 110.829 182.616 110.689 182.588 110.543C182.479 110.291 182.393 110.004 182.25 109.729C181.951 109.12 181.381 108.836 180.68 108.97C180.563 108.993 180.451 109.045 180.305 109.073C179.767 109.267 179.186 109.712 179.359 110.77C179.37 110.828 179.376 110.857 179.411 110.881C179.428 110.969 179.474 111.051 179.491 111.138C179.674 111.618 179.891 112.273 180.6 112.652C180.838 112.788 181.205 112.96 181.614 112.881C181.818 112.842 182.012 112.744 182.164 112.594C182.352 112.467 182.552 112.246 182.682 111.979C182.866 111.671 182.857 111.309 182.725 110.94ZM101.954 156.624C100.706 154.865 99.2622 153.658 97.5169 152.933C96.8594 152.666 96.1682 152.223 95.5074 151.623C94.8578 151.081 94.5139 150.238 94.5441 149.293C94.6093 148.372 95.0183 147.505 95.7105 147.008C95.869 146.887 96.0387 146.824 96.214 146.79C96.7691 146.684 97.2749 146.95 97.4929 147.453C97.5446 147.565 97.5963 147.676 97.6188 147.793C97.6817 147.962 97.7503 148.161 97.8481 148.355C98.1819 148.987 98.9203 149.36 99.5923 149.231L99.6507 149.22C100.376 149.05 100.777 148.458 100.713 147.652C100.659 147.056 100.563 146.56 100.391 146.138C99.9955 145.184 99.2773 144.444 98.2535 144.004C97.4275 143.648 96.4655 143.53 95.6181 143.693L95.4136 143.732C93.865 144.03 92.7379 144.944 91.9738 146.485C91.6895 147.055 91.5333 147.66 91.4817 148.337C91.4312 148.862 91.4447 149.405 91.5211 150.117C91.6179 151.25 91.9169 152.647 93.1352 153.624C93.7151 154.119 94.3186 154.578 95.0154 155.05C95.3986 155.31 95.8111 155.564 96.1887 155.794C96.9091 156.231 97.5654 156.651 98.1746 157.139C99.4682 158.193 99.9503 159.282 99.7481 160.594C99.6268 161.223 98.9739 161.924 98.2783 162.089C98.2491 162.094 98.2547 162.123 98.2255 162.129C97.7288 162.225 97.0837 161.864 96.7319 161.295C96.4093 160.721 96.1789 160.311 96.0361 159.884C95.8934 159.457 95.6214 159.146 95.2843 158.968C95.0112 158.808 94.6965 158.748 94.2706 158.739C94.1537 158.761 94.0604 158.749 93.9435 158.771C93.4468 158.867 93.1996 159.157 93.0872 159.36C92.9456 159.569 92.8086 159.959 92.9738 160.503L93.1964 161.188L93.3852 161.697C93.9382 163.469 95.2374 164.552 97.4278 165.07C98.0279 165.197 98.6112 165.236 99.1371 165.135C99.7215 165.023 100.249 164.77 100.689 164.382C100.789 164.272 100.924 164.185 101.059 164.099C101.276 163.966 101.522 163.828 101.727 163.637C102.08 163.266 102.48 162.826 102.648 162.278C103.334 160.177 103.115 158.249 101.954 156.624ZM112.569 141.705C112.396 141.435 111.895 140.562 110.96 140.742C110.668 140.798 110.369 140.977 110.028 141.254C109.893 141.341 109.793 141.451 109.746 141.521C109.723 141.555 109.723 141.555 109.693 141.561C109.57 141.706 109.521 141.927 109.561 142.132L109.789 142.846C109.937 143.302 110.056 143.764 110.135 144.173C110.766 147.294 111.401 150.595 111.996 153.844C112.226 155.042 112.358 156.199 112.39 157.313C112.441 158.364 112.307 159.087 111.534 159.478C111.312 159.581 111.06 159.69 110.826 159.735C110.359 159.825 109.892 159.763 109.515 159.533C109.102 159.279 108.784 158.886 108.619 158.342C108.15 157.008 107.793 155.622 107.465 154.231C107.39 154.003 107.345 153.769 107.271 153.541C107.113 152.875 107.013 152.197 106.883 151.525C106.838 151.291 106.817 151.023 106.772 150.789L106.53 149.532C106.425 148.826 106.284 148.095 106.149 147.394C105.913 146.167 105.653 144.974 105.381 143.875C105.308 143.495 105.095 143.173 104.81 142.955C104.497 142.743 104.142 142.629 103.786 142.667L103.669 142.69C102.851 142.847 102.302 143.619 102.372 144.454C102.382 144.664 102.445 144.834 102.479 145.009L102.524 145.243C102.654 145.763 102.755 146.289 102.851 146.786L103.289 149.065C103.452 149.913 103.644 150.754 103.825 151.538C103.887 151.859 103.978 152.175 104.069 152.491C104.24 153.064 104.411 153.637 104.425 154.18C104.458 155.143 104.744 155.997 105 156.856C105.091 157.172 105.206 157.453 105.268 157.775L105.468 158.342C105.542 158.57 105.616 158.798 105.655 159.003C105.835 159.938 106.232 160.74 106.864 161.346C107.426 161.904 108.111 162.318 109.054 162.652C109.735 162.884 110.289 162.929 110.757 162.839L110.786 162.834C111.721 162.654 112.564 162.31 113.295 162.018C113.77 161.805 114.21 161.417 114.435 161.011C115.369 159.407 115.7 157.98 115.443 156.484L115.052 153.983C114.969 153.393 114.886 152.803 114.774 152.219C114.606 151.191 114.434 149.981 114.215 148.842C114.132 148.252 114.019 147.668 113.912 147.112C113.778 146.411 113.643 145.71 113.543 145.032L113.498 144.799C113.33 143.77 113.151 142.684 112.569 141.705ZM128.391 157.75L128.1 156.867C127.962 156.469 127.831 156.1 127.729 155.726C127.565 155.031 127.159 153.866 126.584 153.401L126.138 152.972C125.524 152.454 124.903 151.907 124.312 151.354C124.167 151.23 124.011 151.048 123.855 150.866C123.902 150.796 123.949 150.727 123.991 150.628C124.279 150.239 124.51 149.861 124.764 149.449C125.331 148.461 125.7 147.542 125.794 146.614C125.924 145.559 125.786 144.525 125.321 143.524C125.166 143.19 124.987 142.891 124.814 142.622C124.687 142.434 124.595 142.27 124.502 142.106C123.321 140.061 121.269 139.789 119.635 139.8C118.818 139.806 118.053 139.923 117.287 140.04C117.024 140.09 116.791 140.135 116.522 140.156L116.434 140.173C115.996 140.258 115.644 140.477 115.432 140.79C115.225 141.133 115.152 141.541 115.266 141.974C115.339 142.354 115.441 142.728 115.573 143.096L115.823 143.927C116.243 145.634 116.638 147.376 117.012 149.001C117.379 150.597 117.752 152.222 118.085 153.794C118.147 154.115 118.214 154.466 118.305 154.782C118.61 156.208 118.926 157.692 119.055 159.152C119.065 159.362 119.087 159.631 119.196 159.883C119.466 160.497 120.21 160.9 120.911 160.765C121.349 160.68 121.865 160.369 121.901 159.453L121.914 159.208C121.934 158.841 121.949 158.444 121.87 158.035C121.714 157.065 121.529 156.101 121.343 155.137L121.191 154.348L121.48 153.959C121.68 153.739 121.851 153.524 122.022 153.309L122.352 153.609C122.943 154.162 123.529 154.686 124.085 155.215C124.491 155.592 124.839 156.615 124.987 157.223C125.163 157.826 125.422 158.382 125.744 158.956C125.917 159.226 126.196 159.415 126.551 159.528C126.848 159.653 127.186 159.679 127.449 159.628C127.624 159.594 127.765 159.537 127.87 159.456C128.404 159.081 128.59 158.469 128.391 157.75ZM122.832 145.548C122.853 146.605 122.579 147.384 122.037 148.034C121.496 148.684 120.965 149.392 120.417 150.164L120.322 150.303L119.315 146.012L118.573 142.943L119.128 142.837C119.654 142.735 120.133 142.704 120.599 142.766C121.101 142.851 121.687 143.223 122.121 143.746C122.595 144.321 122.842 144.97 122.832 145.548ZM136.835 140.127C136.111 139.357 135.289 138.546 134.365 137.997C133.238 137.335 132.107 137.128 130.909 137.358C130.763 137.387 130.588 137.42 130.447 137.478C130.359 137.495 130.272 137.511 130.178 137.499C129.84 137.473 129.513 137.506 129.192 137.568C128.403 137.719 127.659 138.105 126.884 138.799C126.76 138.944 126.671 139.113 126.705 139.288C126.733 139.434 126.732 139.586 126.76 139.732C126.758 140.036 126.79 140.363 126.881 140.679C127.314 142.141 127.548 143.671 127.776 145.173C127.982 146.557 128.193 147.971 128.551 149.356C128.659 149.76 128.703 150.145 128.729 150.595C128.772 150.98 128.816 151.366 128.889 151.746C129.177 153.084 129.535 154.47 129.938 155.937C130.085 156.545 130.326 157.166 130.654 157.769C130.977 158.343 131.751 158.588 132.306 158.482C132.423 158.459 132.534 158.407 132.646 158.356C132.944 158.177 133.473 157.772 133.362 156.885C133.307 156.441 133.252 155.997 133.174 155.588L132.631 153.238C132.568 153.068 132.528 152.864 132.495 152.688L133.773 150.988C134.905 149.467 135.989 148.016 137.039 146.542C137.611 145.735 137.929 144.553 137.892 143.257C137.884 141.956 137.483 140.821 136.835 140.127ZM134.351 144.696C133.625 145.805 132.8 146.873 131.999 147.905L131.515 148.544C131.051 146.603 130.715 144.698 130.385 142.823L129.952 140.573C131.971 140.517 133.304 140.988 134.335 142.093C134.45 142.222 134.537 142.357 134.559 142.474C134.712 143.111 134.823 143.999 134.351 144.696ZM151.696 153.267L151.405 152.383C151.268 151.986 151.136 151.617 151.034 151.243C150.87 150.547 150.464 149.383 149.89 148.918L149.444 148.488C148.829 147.97 148.208 147.423 147.617 146.87C147.472 146.747 147.316 146.565 147.16 146.383C147.207 146.313 147.254 146.243 147.296 146.144C147.585 145.755 147.815 145.378 148.069 144.965C148.636 143.977 149.005 143.058 149.099 142.131C149.23 141.076 149.091 140.042 148.626 139.041C148.471 138.707 148.292 138.408 148.119 138.138C147.992 137.951 147.9 137.786 147.808 137.622C146.626 135.577 144.574 135.305 142.94 135.317C142.123 135.322 141.358 135.439 140.593 135.556C140.33 135.607 140.096 135.652 139.827 135.673L139.74 135.69C139.302 135.774 138.95 135.993 138.737 136.307C138.531 136.65 138.458 137.058 138.571 137.49C138.644 137.87 138.747 138.244 138.878 138.613L139.129 139.444C139.548 141.151 139.944 142.892 140.317 144.517C140.684 146.113 141.058 147.738 141.39 149.31C141.452 149.632 141.52 149.982 141.611 150.298C141.915 151.724 142.231 153.209 142.361 154.669C142.371 154.879 142.392 155.147 142.501 155.399C142.771 156.014 143.515 156.416 144.216 156.281C144.654 156.197 145.17 155.886 145.206 154.97L145.22 154.725C145.24 154.357 145.254 153.961 145.176 153.551C145.019 152.582 144.834 151.617 144.648 150.653L144.497 149.864L144.785 149.475C144.986 149.255 145.156 149.04 145.327 148.826L145.658 149.126C146.249 149.679 146.834 150.202 147.391 150.732C147.796 151.108 148.145 152.132 148.292 152.74C148.468 153.342 148.727 153.898 149.05 154.473C149.223 154.742 149.501 154.931 149.856 155.045C150.153 155.169 150.491 155.195 150.754 155.145C150.93 155.111 151.07 155.054 151.176 154.973C151.71 154.597 151.895 153.986 151.696 153.267ZM146.137 141.065C146.158 142.121 145.884 142.901 145.343 143.551C144.801 144.2 144.27 144.908 143.722 145.68L143.628 145.82L142.62 141.529L141.879 138.46L142.434 138.353C142.96 138.252 143.438 138.221 143.905 138.282C144.406 138.368 144.993 138.74 145.427 139.262C145.901 139.838 146.147 140.487 146.137 141.065ZM156.545 150.819C156.489 150.527 156.438 150.264 156.353 149.977C155.998 148.288 155.631 146.541 155.236 144.799C155.06 144.045 154.85 143.267 154.675 142.513C154.159 140.461 153.62 138.292 153.449 136.143C153.39 135.518 153.155 134.927 152.891 134.342C152.868 134.225 152.822 134.143 152.77 134.032C152.656 133.751 152.395 133.498 152.04 133.384C151.778 133.283 151.44 133.257 151.147 133.314C151.06 133.33 150.943 133.353 150.832 133.405C150.246 133.669 149.986 134.204 150.115 134.876C150.25 135.577 150.39 136.307 150.496 137.014L151.165 140.491C151.356 141.485 151.576 142.473 151.797 143.46C151.989 144.302 152.192 145.202 152.361 146.079C152.789 148.148 153.2 150.281 153.599 152.355L153.632 152.531C153.711 152.94 153.807 153.436 154.23 153.749C154.584 154.014 155.051 154.076 155.733 154.157C155.797 154.175 155.855 154.163 155.914 154.152C156.089 154.118 156.248 153.997 156.307 153.834C156.852 152.729 156.743 151.69 156.545 150.819ZM167.162 144.08C165.914 142.32 164.47 141.113 162.725 140.388C162.067 140.121 161.376 139.678 160.715 139.078C160.066 138.537 159.722 137.694 159.752 136.749C159.817 135.827 160.226 134.961 160.918 134.464C161.077 134.342 161.247 134.28 161.422 134.246C161.977 134.139 162.483 134.405 162.701 134.909C162.753 135.02 162.804 135.131 162.827 135.248C162.89 135.418 162.958 135.617 163.056 135.81C163.39 136.443 164.128 136.816 164.8 136.687L164.859 136.675C165.584 136.506 165.985 135.913 165.921 135.107C165.867 134.512 165.771 134.015 165.599 133.594C165.203 132.64 164.485 131.899 163.461 131.46C162.635 131.104 161.673 130.986 160.826 131.149L160.622 131.188C159.073 131.486 157.946 132.4 157.182 133.94C156.897 134.51 156.741 135.116 156.69 135.793C156.639 136.317 156.653 136.86 156.729 137.573C156.826 138.705 157.125 140.102 158.343 141.08C158.923 141.574 159.527 142.034 160.223 142.506C160.607 142.765 161.019 143.019 161.397 143.25C162.117 143.687 162.773 144.106 163.383 144.595C164.676 145.649 165.158 146.738 164.956 148.049C164.835 148.679 164.182 149.38 163.486 149.544C163.457 149.55 163.463 149.579 163.433 149.585C162.937 149.68 162.292 149.319 161.94 148.751C161.617 148.177 161.387 147.766 161.244 147.339C161.101 146.912 160.829 146.601 160.492 146.424C160.219 146.264 159.904 146.203 159.479 146.194C159.362 146.217 159.268 146.204 159.152 146.227C158.655 146.322 158.408 146.612 158.295 146.816C158.154 147.025 158.017 147.415 158.182 147.959L158.404 148.643L158.593 149.152C159.146 150.924 160.445 152.008 162.636 152.526C163.236 152.653 163.819 152.692 164.345 152.591C164.929 152.478 165.456 152.225 165.897 151.838C165.997 151.728 166.132 151.641 166.267 151.554C166.484 151.422 166.73 151.284 166.935 151.093C167.288 150.722 167.688 150.281 167.856 149.734C168.542 147.632 168.323 145.705 167.162 144.08ZM174.229 147.417C174.173 147.125 174.123 146.862 174.037 146.575C173.682 144.886 173.315 143.139 172.92 141.397C172.744 140.643 172.534 139.865 172.359 139.111C171.843 137.059 171.304 134.89 171.133 132.741C171.074 132.116 170.839 131.525 170.575 130.94C170.552 130.823 170.506 130.741 170.454 130.63C170.34 130.349 170.079 130.096 169.724 129.982C169.462 129.881 169.124 129.855 168.832 129.912C168.744 129.928 168.627 129.951 168.516 130.003C167.93 130.267 167.67 130.802 167.799 131.474C167.934 132.175 168.074 132.905 168.18 133.612L168.849 137.089C169.04 138.083 169.26 139.071 169.481 140.058C169.673 140.9 169.876 141.8 170.045 142.677C170.473 144.746 170.884 146.879 171.283 148.953L171.317 149.129C171.395 149.538 171.491 150.034 171.914 150.347C172.269 150.612 172.735 150.674 173.417 150.755C173.481 150.773 173.54 150.761 173.598 150.75C173.773 150.716 173.932 150.595 173.991 150.432C174.536 149.327 174.427 148.288 174.229 147.417ZM185.205 133.882C184.949 132.235 184.605 130.604 184.301 129.026L184.29 128.968C184.24 128.705 184.136 128.482 184.038 128.289C184.027 128.231 183.992 128.207 183.981 128.149C183.717 127.563 183.176 127.273 182.504 127.402L182.475 127.408C181.429 127.64 180.928 128.342 181.09 129.341C181.128 129.697 181.219 130.013 181.31 130.329C181.355 130.563 181.423 130.762 181.468 130.995C181.553 131.434 181.637 131.872 181.745 132.275C181.982 133.351 182.225 134.456 182.345 135.553C182.406 136.027 182.573 137.055 182.599 137.504C182.693 138.305 182.792 139.134 182.914 139.928C182.511 139.249 182.136 138.563 181.762 137.878C181.1 136.641 180.409 135.411 179.787 134.228C178.987 132.745 178.181 131.234 177.352 129.757C176.937 129.019 176.012 128.621 175.077 128.801C174.873 128.84 174.674 128.909 174.48 129.007C173.684 129.433 173.385 130.399 173.669 131.405L173.818 131.861C174.21 133.27 174.643 134.732 174.982 136.182C175.112 136.703 175.184 137.234 175.233 137.8C175.277 138.186 175.321 138.571 175.399 138.98C175.572 140.038 175.775 141.09 175.971 142.112C176.077 142.819 176.206 143.491 176.341 144.193C176.458 144.958 176.588 145.63 176.676 146.249L176.74 147.055C176.796 147.499 176.851 147.943 176.935 148.381C177.042 148.936 177.308 149.218 177.517 149.36C177.726 149.501 178.093 149.673 178.619 149.572L178.677 149.561C179.577 149.357 179.996 148.701 179.851 147.79C179.656 146.615 179.431 145.447 179.241 144.301L178.395 139.434C178.295 138.757 178.195 138.079 178.119 137.366C178.677 138.38 179.212 139.429 179.742 140.448C180.766 142.463 181.813 144.443 183.242 146.198C183.357 146.327 183.45 146.491 183.542 146.656C183.704 146.867 183.842 147.113 184.068 147.342C184.531 147.859 185.299 148.075 186.03 147.934C186.293 147.884 186.515 147.78 186.732 147.648C187.547 147.158 187.424 146.363 187.358 145.861L187.336 145.744C187.326 145.534 187.281 145.3 187.241 145.095L186.805 143.301C186.352 141.418 185.882 139.448 185.716 137.481C185.653 136.523 185.413 134.963 185.205 133.882ZM198.552 134.587C198.169 134.327 197.667 134.242 197.177 134.215C197.119 134.226 197.055 134.208 196.991 134.19C196.834 134.16 196.647 134.135 196.437 134.145L196.232 134.185C195.882 134.252 195.496 134.296 195.146 134.364C194.853 134.42 194.59 134.47 194.362 134.545C193.585 134.755 193.142 135.446 193.306 136.142C193.436 136.662 193.947 137.109 194.342 137.275C194.732 137.413 195.129 137.427 195.491 137.418C195.584 137.43 195.672 137.414 195.736 137.432C195.888 137.433 196.004 137.41 196.127 137.417C196.614 138.687 196.763 140.567 196.509 141.767C196.287 142.658 196.079 143.153 195.378 143.288C195.144 143.333 194.841 143.331 194.444 143.316C193.954 143.289 193.278 143.086 192.832 141.869C192.345 140.599 191.994 139.242 191.676 138.061C191.335 136.763 191.14 135.437 191.098 134.112C191.055 132.787 191.158 131.434 191.384 130.088C191.555 129.085 192.073 128.471 193.155 128.111C193.237 128.065 193.325 128.048 193.412 128.031C193.997 127.919 194.221 128.3 194.359 128.697C194.65 129.581 194.818 130.457 194.859 131.298C194.89 131.777 195.092 132.192 195.475 132.452C195.834 132.746 196.283 132.872 196.721 132.788C197.481 132.642 198.064 131.893 198.023 131.053C197.987 129.605 197.59 128.167 196.841 126.796C196.415 125.999 195.643 125.451 194.653 125.187C194.105 125.019 193.499 125.015 192.856 125.138C191.95 125.313 190.978 125.772 190.127 126.39C189.277 127.009 188.664 127.763 188.402 128.449C188.283 128.775 188.223 129.09 188.186 129.37C188.151 130.134 188.087 130.904 188.046 131.639C188.018 132.281 187.961 132.928 187.933 133.57C187.842 134.829 188.102 136.022 188.321 137.161C188.479 137.828 188.597 138.441 188.663 139.095C188.8 140.281 189.147 141.456 189.659 142.54C190.371 144.039 191.134 145.013 192.075 145.65C193.051 146.311 194.28 146.559 195.804 146.448C195.985 146.443 196.189 146.404 196.365 146.37C197.446 146.162 198.331 145.568 198.963 144.598C199.311 144.046 199.526 143.429 199.694 142.73C199.803 142.194 199.843 141.611 199.883 140.876C199.915 139.627 199.685 138.429 199.46 137.261C199.37 136.793 199.28 136.326 199.22 135.852C199.141 135.443 199.01 134.923 198.552 134.587ZM212.369 141.171C212.14 140.457 211.519 140.061 210.678 140.102L209.726 140.194C209.317 140.273 208.908 140.352 208.446 140.471L208.306 140.528C207.873 140.642 207.499 140.744 207.084 140.793C206.763 140.855 206.494 140.876 206.22 140.869C206.163 140.728 206.146 140.641 206.135 140.582C205.655 138.402 205.26 136.508 204.894 134.761C204.803 134.445 204.764 134.089 204.703 133.767C204.613 133.3 204.523 132.832 204.404 132.37C204.149 131.207 203.861 130.021 203.583 128.892C203.43 128.255 203.248 127.624 203.095 126.986L202.96 126.285C202.83 125.765 202.729 125.239 202.54 124.73C202.391 124.274 202.004 123.833 201.597 123.608C201.399 123.525 201.154 123.512 200.915 123.527C200.681 123.572 200.429 123.681 200.207 123.785C199.879 123.969 199.695 124.277 199.64 124.621C199.627 124.866 199.672 125.1 199.717 125.333L199.722 125.363C200.377 128.449 201.002 131.54 201.486 133.901C201.571 134.34 201.655 134.778 201.71 135.222C201.879 136.098 202.024 137.01 202.28 137.869C202.582 138.811 202.78 139.682 202.896 140.599C202.912 140.839 202.962 141.101 203.007 141.335C203.045 141.691 203.113 142.042 203.122 142.404C203.236 143.624 203.912 144.464 204.845 144.587C204.874 144.582 204.938 144.6 204.997 144.589L205.055 144.577L206.207 144.265L208.206 143.789C208.58 143.687 208.96 143.614 209.311 143.546C209.895 143.434 210.48 143.322 211.053 143.151C211.544 143.026 211.966 142.702 212.185 142.266C212.387 141.894 212.465 141.516 212.369 141.171ZM218.737 121.705L218.583 121.219C218.378 120.471 217.727 120.081 216.95 120.291C215.997 120.535 215.788 121.181 215.784 121.636L215.788 121.969C215.762 122.307 215.753 122.733 215.855 123.108C216.094 124.031 215.97 124.964 215.829 125.961L215.798 126.118C215.779 126.334 215.754 126.521 215.706 126.742C215.606 127.64 215.477 128.543 215.319 129.453C215.277 129.551 215.27 129.674 215.258 129.767L215.221 130.047L214.608 129.226C214.152 128.586 213.666 127.952 213.216 127.342C212.852 126.867 212.488 126.392 212.153 125.911C212.112 125.858 212.072 125.805 212.037 125.781C211.875 125.57 211.708 125.33 211.668 125.125C211.522 124.365 211.159 123.738 210.842 123.193C210.715 123.006 210.617 122.812 210.525 122.648C210.427 122.455 210.253 122.337 210.037 122.318C209.67 122.298 209.425 122.284 209.191 122.329C208.84 122.397 208.624 122.529 208.225 122.818C208.013 122.98 207.941 123.236 207.986 123.47L208.226 124.242C208.362 124.791 208.498 125.341 208.687 125.85C208.989 126.792 209.491 127.513 210.17 128.049C210.495 128.32 210.855 128.615 211.01 128.948C211.562 130.084 212.301 131.094 213.006 132.079L213.63 132.959C214.461 134.132 214.851 135.057 214.984 136.062C215.061 136.774 215.172 137.51 215.359 138.323C215.551 139.165 215.801 139.995 216.041 140.767C216.309 141.534 216.942 141.987 217.835 142.058C217.957 142.065 218.074 142.042 218.162 142.026C218.687 141.924 219.064 141.519 219.085 141C219.089 140.544 218.999 140.077 218.931 139.726C218.881 139.463 218.806 139.235 218.761 139.001C218.693 138.802 218.659 138.627 218.62 138.423C218.366 137.26 218.135 136.062 217.927 134.98L217.888 134.776C217.854 134.601 217.815 134.396 217.822 134.274C217.891 133.533 217.967 132.822 218.071 132.105C218.072 131.953 218.102 131.796 218.133 131.638C218.196 131.02 218.288 130.396 218.38 129.773C218.58 127.977 218.833 126.14 219.091 124.333C219.209 123.371 218.982 122.506 218.737 121.705ZM225.034 138.764C224.89 138.489 224.536 138.224 224.168 138.204C223.888 138.167 223.591 138.194 223.328 138.244L222.977 138.312C222.497 138.495 222.185 138.919 222.175 139.496C222.139 139.624 222.196 139.765 222.271 139.841C222.376 139.912 222.416 139.965 222.462 140.047C222.799 140.376 222.874 140.452 222.913 140.657C222.969 140.949 222.89 141.48 222.731 142.389C222.724 142.511 222.747 142.628 222.793 142.71C223.035 143.179 223.517 143.48 224.065 143.496C224.124 143.484 224.217 143.497 224.305 143.48C224.392 143.463 224.942 143.327 225.108 142.931C225.478 141.86 225.915 140.352 225.034 138.764ZM100.739 186.792C100.483 185.144 100.139 183.513 99.8354 181.936L99.8241 181.877C99.7735 181.614 99.6701 181.392 99.5724 181.198C99.5611 181.14 99.5263 181.116 99.515 181.058C99.2509 180.472 98.7103 180.183 98.0383 180.312L98.0091 180.317C96.9628 180.549 96.4617 181.251 96.6235 182.251C96.6618 182.607 96.7528 182.923 96.8439 183.238C96.8888 183.472 96.9574 183.671 97.0024 183.905C97.0867 184.343 97.171 184.781 97.2789 185.185C97.5161 186.26 97.7589 187.365 97.8793 188.463C97.94 188.936 98.1075 189.964 98.1334 190.414C98.2267 191.214 98.3256 192.043 98.4482 192.838C98.0447 192.158 97.6704 191.472 97.2962 190.787C96.6341 189.551 95.9429 188.32 95.3214 187.137C94.5211 185.655 93.7152 184.143 92.8858 182.667C92.471 181.928 91.5461 181.53 90.6111 181.71C90.4066 181.75 90.2077 181.818 90.0144 181.916C89.2176 182.342 88.9188 183.309 89.2032 184.314L89.3515 184.771C89.7438 186.18 90.1766 187.642 90.5161 189.092C90.6465 189.612 90.7184 190.143 90.7668 190.71C90.8107 191.095 90.8545 191.481 90.9332 191.89C91.1063 192.947 91.3087 193.999 91.5054 195.022C91.6111 195.729 91.7404 196.401 91.8753 197.102C91.9922 197.867 92.1215 198.539 92.2103 199.159L92.2744 199.964C92.3295 200.408 92.3846 200.852 92.469 201.29C92.5758 201.846 92.8421 202.128 93.0512 202.269C93.2602 202.411 93.6266 202.583 94.1525 202.482L94.2109 202.47C95.1111 202.267 95.5302 201.61 95.3852 200.699C95.1896 199.525 94.9647 198.356 94.7747 197.211L93.9293 192.344C93.8293 191.666 93.7292 190.988 93.6527 190.276C94.2113 191.289 94.7463 192.338 95.2757 193.357C96.2996 195.372 97.3472 197.352 98.7756 199.108C98.8914 199.237 98.9836 199.401 99.0757 199.565C99.2376 199.776 99.3758 200.022 99.6017 200.252C100.065 200.768 100.833 200.984 101.564 200.844C101.827 200.793 102.049 200.69 102.266 200.557C103.081 200.067 102.958 199.272 102.892 198.77L102.87 198.653C102.86 198.443 102.815 198.209 102.775 198.005L102.339 196.21C101.886 194.328 101.416 192.358 101.25 190.39C101.187 189.432 100.947 187.873 100.739 186.792ZM113.996 187.817C114.038 187.718 114.044 187.595 113.998 187.513C113.925 187.133 113.823 186.759 113.755 186.409C113.569 185.596 113.377 184.754 113.155 183.918C112.756 182.632 112.281 181.42 111.846 180.261C111.496 179.389 110.764 178.894 110.09 178.539C109.689 178.343 109.305 178.235 108.849 178.232C108.488 178.241 108.131 178.279 107.81 178.341L107.226 178.454C107.103 178.447 106.986 178.469 106.869 178.492C105.964 178.666 105.061 179.173 104.355 179.915C103.626 180.691 103.164 181.598 103.041 182.531C102.817 184.362 102.894 185.862 103.286 187.271L103.325 187.476C103.496 188.049 103.662 188.593 103.704 189.13C103.995 191.589 104.947 193.86 105.877 196.014L106.382 197.22C107.167 199.099 108.741 199.402 109.878 199.487C110.304 199.496 110.724 199.475 111.192 199.385C111.542 199.318 111.887 199.221 112.232 199.125C112.408 199.091 112.577 199.028 112.753 198.994C113.419 198.836 113.911 198.559 114.253 198.13C114.624 197.695 114.85 197.136 114.896 196.431C115.024 194.891 114.954 193.268 114.665 191.294C114.526 190.412 114.328 189.541 114.165 188.693L113.996 187.817ZM106.477 187.476C106.352 186.984 106.209 186.557 106.119 186.09C105.799 184.424 105.99 183.055 106.681 181.922C106.905 181.515 107.222 181.272 107.602 181.199C107.894 181.143 108.209 181.203 108.517 181.387C108.75 181.493 108.976 181.723 109.079 181.945L109.24 182.308C109.843 183.555 110.401 184.721 110.473 186.04C110.486 186.583 110.646 187.098 110.806 187.612C110.845 187.817 110.913 188.016 110.982 188.215C110.999 188.302 111.045 188.384 111.091 188.466C111.345 190.417 111.605 192.397 111.83 194.354C111.841 194.412 111.858 194.5 111.845 194.593C111.903 195.522 111.478 196.149 110.718 196.295C110.455 196.346 110.152 196.343 109.832 196.253C109.36 196.162 109.099 195.91 108.956 195.483C108.711 194.681 108.413 193.92 108.086 193.165C107.582 191.959 107.088 190.812 106.963 189.533C106.887 188.821 106.664 188.136 106.477 187.476ZM125.355 175.572C125.024 175.272 124.547 175.152 123.957 175.235L123.548 175.314C123.402 175.342 123.285 175.364 123.191 175.352C122.806 175.396 122.426 175.469 122.017 175.547C121.257 175.694 120.532 175.863 119.813 176.062C119.123 176.256 118.369 176.431 117.668 176.566C117.142 176.667 116.669 176.728 116.225 176.783C116.161 176.765 116.102 176.776 116.044 176.787C115.635 176.866 115.283 177.085 114.955 177.27C114.58 177.524 114.326 177.936 114.317 178.362C114.314 178.817 114.515 179.233 114.904 179.522C115.641 180.046 116.388 179.994 116.973 179.881C117.066 179.894 117.153 179.877 117.241 179.86L117.533 179.804C117.913 179.731 118.264 179.663 118.637 179.712C118.676 179.917 118.75 180.145 118.79 180.35C118.954 181.045 119.124 181.77 119.259 182.471C119.422 183.319 119.555 184.172 119.683 184.995C119.902 186.287 120.125 187.607 120.407 188.916C120.814 190.717 121.315 192.529 121.774 194.289L122.076 195.383C122.241 195.927 122.535 196.355 123.006 196.597C123.343 196.775 123.786 196.872 124.329 196.858L124.417 196.841C124.534 196.819 124.645 196.767 124.716 196.663C125.545 195.776 125.26 194.77 125.119 194.191C124.698 192.636 124.313 191.104 123.865 189.251C123.577 188.064 123.3 186.784 123.023 185.504C122.555 183.383 122.121 181.284 121.709 179.303C121.698 179.245 121.705 179.122 121.712 179L121.858 178.972C122.203 178.875 122.489 178.79 122.781 178.733L123.658 178.565C123.927 178.543 124.219 178.487 124.511 178.431L124.774 178.38C125.499 178.211 125.906 177.648 125.876 176.865C125.852 176.264 125.68 175.843 125.355 175.572ZM145.956 185.395C145.523 183.933 144.679 182.853 143.499 182.232L142.691 181.812C142.685 181.782 142.709 181.748 142.703 181.718C142.775 181.462 142.794 181.246 142.854 181.083C143.259 179.884 143.239 178.676 143.136 177.666C143.073 176.708 142.701 175.719 142.059 174.904C141.435 174.024 140.599 173.457 139.748 173.288C138.198 172.95 136.833 172.94 135.577 173.181C134.758 173.339 133.934 173.619 133.137 174.045L132.809 174.229L132.853 174.614C132.875 174.731 132.863 174.824 132.88 174.912C132.89 175.122 132.923 175.298 132.963 175.502L133.21 176.788C133.34 177.308 133.436 177.805 133.537 178.331C133.571 178.506 133.581 178.716 133.62 178.921C133.636 179.16 133.687 179.423 133.737 179.686C133.946 180.615 134.156 181.545 134.324 182.421C134.619 183.637 134.884 184.859 135.12 186.086C135.352 187.132 135.554 188.184 135.751 189.207C135.977 190.224 136.185 191.305 136.393 192.386C136.63 193.462 137.437 194.033 138.43 193.842C138.605 193.809 138.804 193.74 138.998 193.642C139.056 193.631 139.109 193.591 139.167 193.579C139.413 193.441 139.636 193.338 139.841 193.298C142.114 192.831 143.961 191.566 145.33 189.546C145.755 188.918 146.022 188.261 146.132 187.573C146.237 186.856 146.184 186.109 145.956 185.395ZM140.027 178.203C140.143 179.12 140.003 179.965 139.612 180.768C139.268 181.501 138.702 182.185 137.904 182.914C137.88 182.949 137.763 182.972 137.646 182.994C137.601 182.761 137.533 182.562 137.488 182.328C136.955 180.188 136.439 178.136 136.244 176.022C137.132 175.912 137.966 175.994 138.868 176.275C139.637 176.491 139.865 177.204 140.027 178.203ZM138.764 188.173C138.73 187.997 138.673 187.857 138.615 187.716C138.426 187.207 138.243 186.728 138.235 186.214L138.458 186.111C138.914 185.962 139.365 185.785 139.798 185.519C140.203 185.26 140.561 184.918 140.944 184.542C140.991 184.472 141.067 184.397 141.144 184.321L141.353 184.463C141.725 184.664 142.067 184.871 142.299 185.129C143.456 186.421 142.77 187.735 142.005 188.64C141.281 189.446 140.519 189.895 139.221 190.236C139.077 189.961 139.039 189.604 138.995 189.219C138.957 188.863 138.889 188.512 138.764 188.173ZM159.338 185.124C159.248 184.656 159.065 184.176 158.864 183.761C158.146 182.232 157.369 180.715 156.662 179.245L156.213 178.332C156.081 178.115 155.977 177.892 155.874 177.67C155.644 177.259 155.454 176.902 155.287 176.51C154.897 175.585 154.507 174.66 154.146 173.73L153.143 171.347C152.788 170.446 152.336 169.988 151.255 170.195L151.021 170.24C150.471 170.376 150.085 170.572 149.832 170.833C149.532 171.163 149.406 171.612 149.478 172.143C149.532 172.739 149.493 173.322 149.43 173.94C149.393 174.22 149.361 174.529 149.353 174.803C149.265 176.547 149.24 178.31 149.204 180.013C149.211 180.679 149.194 181.379 149.172 182.05C149.169 182.505 149.2 182.983 149.197 183.439C149.212 184.466 149.217 185.435 149.064 186.373C148.87 187.41 149.021 188.351 149.136 189.268C149.193 189.56 149.225 189.887 149.281 190.179C149.296 190.57 149.486 190.928 149.8 191.14C150.124 191.411 150.538 191.513 150.976 191.429L151.035 191.418C151.765 191.277 152.195 190.679 152.131 189.873C152.122 189.511 152.084 189.155 152.052 188.828C151.991 188.355 151.959 187.876 151.933 187.427C151.906 187.129 151.943 186.849 151.975 186.54C151.969 186.511 151.999 186.505 151.999 186.505L152.7 186.37C153.927 186.134 155.096 185.909 156.286 185.953C156.303 186.041 156.343 186.094 156.354 186.152C156.479 186.643 156.58 187.169 156.653 187.549C156.676 187.666 156.669 187.788 156.686 187.876C156.725 188.081 156.73 188.262 156.798 188.46C156.94 189.039 157.136 189.426 157.455 189.667C157.78 189.938 158.222 190.035 158.725 189.968L158.812 189.952C159.251 189.867 159.591 189.59 159.758 189.194C159.906 188.863 159.944 188.431 159.872 187.899C159.727 186.988 159.547 186.053 159.338 185.124ZM154.965 183.026L152.552 183.399L152.231 183.461C152.107 182.03 152.103 178.698 152.246 176.61C153.004 178.343 153.738 180.111 154.466 181.849L154.965 183.026ZM170.741 173.325C170.485 171.677 170.141 170.047 169.837 168.469L169.826 168.411C169.775 168.148 169.672 167.925 169.574 167.732C169.563 167.673 169.528 167.65 169.517 167.591C169.253 167.006 168.712 166.716 168.04 166.845L168.011 166.851C166.965 167.082 166.463 167.785 166.625 168.784C166.663 169.14 166.755 169.456 166.846 169.772C166.891 170.005 166.959 170.204 167.004 170.438C167.088 170.876 167.173 171.315 167.281 171.718C167.518 172.794 167.761 173.898 167.881 174.996C167.942 175.469 168.109 176.498 168.135 176.947C168.228 177.747 168.327 178.577 168.45 179.371C168.046 178.691 167.672 178.006 167.298 177.32C166.636 176.084 165.945 174.854 165.323 173.67C164.523 172.188 163.717 170.677 162.887 169.2C162.473 168.462 161.548 168.064 160.613 168.244C160.408 168.283 160.209 168.352 160.016 168.449C159.219 168.875 158.92 169.842 159.205 170.848L159.353 171.304C159.746 172.713 160.178 174.175 160.518 175.625C160.648 176.145 160.72 176.677 160.768 177.243C160.812 177.629 160.856 178.014 160.935 178.423C161.108 179.481 161.31 180.533 161.507 181.555C161.613 182.262 161.742 182.934 161.877 183.635C161.994 184.401 162.123 185.073 162.212 185.692L162.276 186.498C162.331 186.942 162.386 187.385 162.471 187.824C162.577 188.379 162.844 188.661 163.053 188.803C163.262 188.944 163.628 189.116 164.154 189.015L164.213 189.004C165.113 188.8 165.532 188.144 165.387 187.232C165.191 186.058 164.966 184.889 164.776 183.744L163.931 178.877C163.831 178.199 163.731 177.522 163.654 176.809C164.213 177.823 164.748 178.871 165.277 179.891C166.301 181.905 167.349 183.886 168.777 185.641C168.893 185.77 168.985 185.934 169.077 186.098C169.239 186.31 169.377 186.556 169.603 186.785C170.066 187.302 170.835 187.517 171.566 187.377C171.829 187.326 172.051 187.223 172.268 187.09C173.083 186.6 172.96 185.806 172.894 185.303L172.871 185.187C172.861 184.976 172.816 184.743 172.777 184.538L172.341 182.743C171.888 180.861 171.418 178.891 171.251 176.923C171.188 175.966 170.949 174.406 170.741 173.325ZM185.525 180.086C185.435 179.618 185.252 179.138 185.051 178.723C184.333 177.194 183.556 175.677 182.849 174.207L182.401 173.294C182.268 173.077 182.165 172.854 182.061 172.632C181.831 172.222 181.641 171.864 181.475 171.472C181.085 170.547 180.695 169.622 180.334 168.692L179.33 166.309C178.975 165.408 178.523 164.95 177.442 165.158L177.208 165.203C176.659 165.339 176.272 165.534 176.019 165.795C175.719 166.125 175.593 166.574 175.665 167.105C175.719 167.701 175.68 168.284 175.617 168.902C175.58 169.182 175.549 169.491 175.541 169.765C175.452 171.51 175.427 173.272 175.392 174.975C175.398 175.641 175.382 176.341 175.359 177.012C175.356 177.467 175.387 177.946 175.384 178.401C175.4 179.428 175.404 180.397 175.252 181.335C175.057 182.372 175.208 183.313 175.324 184.23C175.38 184.522 175.412 184.849 175.469 185.141C175.483 185.532 175.673 185.89 175.987 186.102C176.312 186.373 176.725 186.475 177.163 186.391L177.222 186.38C177.952 186.239 178.383 185.641 178.319 184.836C178.31 184.474 178.271 184.117 178.239 183.79C178.178 183.317 178.147 182.839 178.121 182.389C178.094 182.091 178.131 181.811 178.162 181.502C178.157 181.473 178.186 181.467 178.186 181.467L178.887 181.333C180.114 181.097 181.283 180.872 182.473 180.915C182.49 181.003 182.53 181.056 182.542 181.114C182.666 181.605 182.768 182.131 182.841 182.511C182.863 182.628 182.856 182.751 182.873 182.838C182.913 183.043 182.917 183.224 182.986 183.423C183.127 184.001 183.323 184.388 183.642 184.63C183.967 184.9 184.41 184.997 184.912 184.931L185 184.914C185.438 184.829 185.778 184.552 185.945 184.156C186.093 183.825 186.131 183.393 186.059 182.862C185.914 181.95 185.734 181.015 185.525 180.086ZM181.152 177.988L178.74 178.361L178.418 178.423C178.295 176.992 178.29 173.66 178.434 171.572C179.191 173.305 179.925 175.073 180.653 176.811L181.152 177.988ZM196.928 168.287C196.672 166.64 196.328 165.009 196.024 163.431L196.013 163.373C195.963 163.11 195.859 162.887 195.761 162.694C195.75 162.636 195.715 162.612 195.704 162.553C195.44 161.968 194.899 161.678 194.227 161.807L194.198 161.813C193.152 162.045 192.651 162.747 192.813 163.746C192.851 164.102 192.942 164.418 193.033 164.734C193.078 164.968 193.146 165.166 193.191 165.4C193.276 165.839 193.36 166.277 193.468 166.68C193.705 167.756 193.948 168.86 194.068 169.958C194.129 170.431 194.296 171.46 194.322 171.909C194.416 172.709 194.515 173.539 194.637 174.333C194.234 173.653 193.859 172.968 193.485 172.282C192.823 171.046 192.132 169.816 191.51 168.632C190.71 167.15 189.904 165.639 189.075 164.162C188.66 163.424 187.735 163.026 186.8 163.206C186.596 163.245 186.397 163.314 186.203 163.412C185.407 163.838 185.108 164.804 185.392 165.81L185.54 166.266C185.933 167.675 186.366 169.137 186.705 170.587C186.835 171.107 186.907 171.639 186.956 172.205C187 172.591 187.043 172.976 187.122 173.385C187.295 174.443 187.498 175.495 187.694 176.517C187.8 177.224 187.929 177.896 188.064 178.598C188.181 179.363 188.31 180.035 188.399 180.654L188.463 181.46C188.519 181.904 188.574 182.348 188.658 182.786C188.765 183.341 189.031 183.623 189.24 183.765C189.449 183.906 189.816 184.078 190.341 183.977L190.4 183.966C191.3 183.762 191.719 183.106 191.574 182.195C191.379 181.02 191.154 179.851 190.964 178.706L190.118 173.839C190.018 173.162 189.918 172.484 189.842 171.771C190.4 172.785 190.935 173.833 191.465 174.853C192.489 176.868 193.536 178.848 194.965 180.603C195.08 180.732 195.173 180.896 195.265 181.06C195.427 181.272 195.565 181.518 195.791 181.747C196.254 182.264 197.022 182.48 197.753 182.339C198.016 182.289 198.238 182.185 198.455 182.053C199.27 181.563 199.147 180.768 199.081 180.266L199.059 180.149C199.048 179.939 199.004 179.705 198.964 179.5L198.528 177.706C198.075 175.823 197.605 173.853 197.439 171.885C197.376 170.928 197.136 169.368 196.928 168.287ZM211.713 175.048C211.623 174.581 211.439 174.101 211.238 173.685C210.52 172.157 209.743 170.639 209.036 169.17L208.588 168.256C208.455 168.039 208.352 167.817 208.249 167.594C208.018 167.184 207.828 166.826 207.662 166.434C207.272 165.509 206.882 164.585 206.521 163.654L205.517 161.272C205.162 160.37 204.71 159.912 203.629 160.12L203.395 160.165C202.846 160.301 202.459 160.496 202.206 160.757C201.906 161.088 201.781 161.536 201.853 162.068C201.907 162.663 201.867 163.246 201.804 163.865C201.767 164.144 201.736 164.453 201.728 164.728C201.639 166.472 201.615 168.234 201.579 169.938C201.586 170.603 201.569 171.303 201.546 171.974C201.543 172.429 201.575 172.908 201.571 173.363C201.587 174.39 201.592 175.359 201.439 176.297C201.244 177.335 201.395 178.275 201.511 179.192C201.567 179.484 201.6 179.811 201.656 180.104C201.671 180.495 201.861 180.852 202.174 181.064C202.499 181.335 202.912 181.437 203.351 181.353L203.409 181.342C204.14 181.201 204.57 180.603 204.506 179.798C204.497 179.436 204.459 179.08 204.426 178.753C204.365 178.279 204.334 177.801 204.308 177.351C204.281 177.053 204.318 176.774 204.349 176.465C204.344 176.435 204.373 176.43 204.373 176.43L205.074 176.295C206.302 176.059 207.47 175.834 208.66 175.878C208.677 175.965 208.718 176.018 208.729 176.077C208.854 176.568 208.955 177.094 209.028 177.473C209.05 177.59 209.044 177.713 209.061 177.8C209.1 178.005 209.104 178.186 209.173 178.385C209.315 178.964 209.51 179.35 209.829 179.592C210.154 179.863 210.597 179.959 211.099 179.893L211.187 179.876C211.625 179.792 211.966 179.514 212.132 179.118C212.28 178.787 212.319 178.355 212.247 177.824C212.102 176.912 211.922 175.977 211.713 175.048ZM207.34 172.95L204.927 173.323L204.606 173.385C204.482 171.955 204.477 168.623 204.621 166.534C205.378 168.267 206.112 170.035 206.841 171.774L207.34 172.95ZM222.967 165.944C222.921 165.862 222.899 165.745 222.847 165.634C222.767 165.377 222.494 165.217 222.226 165.238L221.718 165.276C221.42 165.303 221.122 165.33 220.801 165.391L220.187 165.509C219.071 165.694 217.926 165.884 216.786 166.103L216.319 166.193C215.413 166.367 214.489 166.606 213.372 166.942C212.881 167.066 212.476 167.478 212.39 167.979C212.27 168.457 212.459 168.966 212.853 169.284C213.224 169.637 213.748 169.839 214.232 169.837C214.57 169.862 214.892 169.8 215.155 169.75L219.947 168.828C220.531 168.716 221.11 168.574 221.689 168.432C221.864 168.399 222.01 168.371 222.15 168.313C222.881 168.173 223.282 167.58 223.229 166.833C223.197 166.506 223.082 166.225 222.967 165.944ZM233.912 155.445L233.758 154.96C233.554 154.212 232.903 153.822 232.125 154.032C231.172 154.276 230.963 154.922 230.96 155.377L230.963 155.71C230.938 156.048 230.929 156.474 231.031 156.848C231.269 157.772 231.146 158.705 231.004 159.702L230.974 159.859C230.955 160.075 230.93 160.261 230.882 160.483C230.782 161.381 230.653 162.284 230.494 163.193C230.453 163.292 230.446 163.415 230.433 163.508L230.396 163.788L229.784 162.966C229.328 162.327 228.842 161.693 228.391 161.083C228.027 160.608 227.663 160.132 227.328 159.651C227.288 159.598 227.247 159.546 227.212 159.522C227.051 159.311 226.883 159.07 226.844 158.866C226.698 158.106 226.335 157.479 226.018 156.934C225.891 156.746 225.793 156.553 225.701 156.389C225.603 156.196 225.429 156.078 225.213 156.059C224.845 156.038 224.6 156.025 224.367 156.07C224.016 156.137 223.799 156.27 223.4 156.559C223.189 156.721 223.117 156.977 223.162 157.211L223.401 157.983C223.537 158.532 223.673 159.082 223.862 159.591C224.165 160.533 224.667 161.254 225.346 161.79C225.671 162.061 226.03 162.355 226.185 162.689C226.737 163.825 227.477 164.834 228.182 165.82L228.805 166.7C229.637 167.873 230.027 168.798 230.16 169.802C230.236 170.515 230.347 171.251 230.534 172.064C230.726 172.905 230.977 173.736 231.216 174.508C231.485 175.274 232.118 175.728 233.01 175.799C233.133 175.806 233.249 175.783 233.337 175.766C233.863 175.665 234.239 175.259 234.261 174.74C234.264 174.285 234.174 173.818 234.107 173.467C234.056 173.204 233.982 172.976 233.937 172.742C233.868 172.543 233.835 172.368 233.795 172.163C233.541 171 233.311 169.802 233.103 168.721L233.064 168.517C233.03 168.341 232.99 168.137 232.997 168.014C233.067 167.274 233.142 166.562 233.247 165.845C233.248 165.694 233.278 165.536 233.308 165.379C233.371 164.761 233.463 164.137 233.555 163.513C233.755 161.717 234.008 159.881 234.266 158.074C234.384 157.112 234.157 156.247 233.912 155.445ZM240.086 173.226C240.034 173.114 239.977 172.974 239.949 172.828C239.84 172.576 239.754 172.29 239.61 172.014C239.311 171.405 238.742 171.121 238.04 171.256C237.923 171.278 237.812 171.33 237.666 171.358C237.128 171.553 236.547 171.998 236.72 173.055C236.731 173.114 236.737 173.143 236.772 173.166C236.789 173.254 236.835 173.336 236.851 173.424C237.035 173.904 237.252 174.559 237.961 174.937C238.199 175.073 238.565 175.245 238.974 175.167C239.179 175.127 239.372 175.029 239.525 174.879C239.713 174.752 239.913 174.532 240.043 174.264C240.226 173.956 240.217 173.594 240.086 173.226Z" fill="#F9F9F9"/>
</svg>
