<svg width="246" height="256" viewBox="0 0 246 256" fill="none" xmlns="http://www.w3.org/2000/svg">
<path d="M235.559 92.7292C258.53 156.782 234.306 224.183 170.195 247.208C106.085 270.234 48.4483 237.58 25.4771 173.318C2.50599 109.056 23.18 54.0048 87.2904 31.1888C151.401 8.37275 212.796 28.4676 235.559 92.7292Z" fill="#FFFDE9" stroke="#5B3429" stroke-width="2.19844" stroke-miterlimit="10"/>
<path d="M144.927 74.5183L154.951 74.937L159.336 98.1716L155.995 124.546L135.947 142.338L112.35 156.154L87.9169 158.456L52.2073 145.688L59.7251 139.827L66.4076 133.338L84.7845 131.244L99.1937 127.686L112.559 121.616L129.891 109.684L139.915 95.0318L149.73 90.0081L144.927 74.5183Z" fill="#FFD400"/>
<path d="M155.16 68.0294L153.698 74.937L160.798 98.381L158.501 123.918L134.486 145.688L114.438 156.991L87.9169 160.549L54.7132 149.455L52.2073 151.549L86.8728 165.364L117.988 164.108L145.554 150.711L163.722 129.361L168.316 109.684L161.842 91.6827V73.2625L155.16 68.0294Z" fill="#FFE96B"/>
<path d="M144.301 69.704L154.116 65.3082L162.678 70.7506L164.139 77.8675V91.892L170.613 109.056L164.557 129.989L145.971 152.177L118.824 166.201L86.4552 166.62L61.1869 156.572L52.2073 151.549V142.966L63.9017 137.733L83.1139 134.803L104.206 129.57L122.791 119.104L131.771 110.731L143.257 94.6132L149.73 90.0081L145.136 76.4023L144.301 69.704Z" stroke="#5B3429" stroke-width="0.824605" stroke-miterlimit="10"/>
<path d="M59.7251 139.827C60.7692 141.083 59.9339 149.665 59.9339 149.665L52.2073 151.549V142.966L59.7251 139.827Z" fill="#5B3429"/>
<path d="M145.136 76.4023L154.951 78.7048L162.677 70.7506L154.115 65.3082L144.301 69.704L145.136 76.4023Z" fill="#5B3429"/>
<path d="M154.951 78.7047L156.622 86.4496" stroke="black" stroke-width="0.824605" stroke-miterlimit="10"/>
<path d="M159.754 95.032L162.051 101.94L159.963 106.126L160.798 108.847L160.589 114.708L157.457 122.244L155.577 128.733C155.577 128.733 150.983 131.873 150.565 132.291C150.148 132.71 147.015 134.384 146.807 134.594C146.598 134.803 144.509 137.524 144.509 137.524L141.795 138.152L154.533 126.43L158.501 114.29L159.545 101.94L159.754 95.032Z" fill="#5B3429"/>
<path d="M61.8135 150.293C61.8135 150.293 67.6607 148.199 68.0783 148.409C68.496 148.827 77.6844 154.898 77.6844 154.898C77.6844 154.898 80.3992 153.432 81.2345 154.06C82.0698 154.688 87.7082 155.944 87.917 157.2C88.1259 158.456 93.5554 157.828 94.5996 157.828C95.6437 157.828 95.6437 156.572 97.1055 156.154C98.5673 155.735 98.985 155.316 101.282 155.526C103.579 155.735 106.92 156.572 107.338 156.572C107.756 156.572 112.35 156.154 112.35 156.154L92.0936 158.875L88.1259 160.549L73.0902 154.898L61.8135 150.293Z" fill="#5B3429"/>
<path d="M141.794 74.5182L152.027 68.6572L171.03 88.3334L184.604 116.592L176.251 146.943L161.842 175.411L139.289 193.413L96.061 203.669L99.8199 193.203L102.326 182.319L119.032 168.713L130.727 155.944L140.124 141.292L149.521 118.685L149.939 97.9622L156.412 86.4495L141.794 74.5182Z" fill="#FFD400"/>
<path d="M147.851 61.5404L150.774 69.2853L172.492 87.7056L186.693 114.289L177.087 150.921L164.557 174.993L140.75 195.297L101.073 205.763L100.029 209.321L142.839 200.739L172.492 179.598L191.078 148.827L195.255 116.173L187.319 93.9852L169.36 80.3793L157.665 62.587L147.851 61.5404Z" fill="#FFE96B"/>
<path d="M138.036 70.1225L144.927 59.4471H157.039L162.677 65.5175L171.657 79.1234L188.99 91.892L196.508 116.383L192.331 150.083L174.581 181.272L143.047 202.204L111.723 208.484L100.029 209.321L94.3904 201.158L102.535 188.389L119.45 173.109L136.783 154.479L148.477 132.5L152.027 118.476L153.071 95.4504L156.412 86.4496L143.256 76.4022L138.036 70.1225Z" stroke="#5B3429" stroke-width="0.965189" stroke-miterlimit="10"/>
<path d="M99.8199 193.204C101.699 193.832 106.294 202.623 106.294 202.623L100.029 209.531L94.3904 201.158L99.8199 193.204Z" fill="#5B3429"/>
<path d="M143.256 76.4022L154.324 72.2157L157.039 59.4471H144.927L138.036 70.1225L143.256 76.4022Z" fill="#5B3429"/>
<path d="M154.324 72.2158L160.798 78.7048" stroke="black" stroke-width="0.965189" stroke-miterlimit="10"/>
<path d="M169.569 85.1936L176.251 90.4266L176.878 95.869L179.384 98.1715L182.934 104.242L184.605 113.661L186.902 121.197C186.902 121.197 184.396 127.267 184.396 127.895C184.396 128.523 182.307 132.291 182.307 132.71C182.307 133.128 181.89 137.105 181.89 137.105L179.593 139.408L184.605 119.732L180.637 105.288L173.328 92.1012L169.569 85.1936Z" fill="#5B3429"/>
<path d="M108.382 201.995C108.382 201.995 112.767 196.134 113.185 196.343C113.812 196.343 126.759 196.553 126.759 196.553C126.759 196.553 128.43 193.622 129.683 193.622C130.936 193.622 137.409 191.32 138.245 192.576C139.08 193.831 144.301 189.645 145.136 189.017C145.971 188.389 145.554 187.133 146.598 185.877C147.851 184.621 147.851 183.784 150.357 182.528C152.863 181.272 156.413 180.016 157.039 179.598C157.666 179.179 161.633 175.83 161.633 175.83L143.465 191.529L140.542 195.715L122.165 199.692L108.382 201.995Z" fill="#5B3429"/>
<path d="M81.2341 61.1217L78.937 50.237L85.6195 48.7717L87.9166 59.6564C88.3343 62.1683 90.0049 63.0056 91.6756 62.5869C93.3462 62.1683 94.5992 60.9124 93.9727 58.6098L91.8844 47.5158L98.5669 46.0505L100.864 56.9352C102.326 63.6335 98.7757 67.192 92.9285 68.4479C86.8725 69.7039 82.4871 67.6106 81.2341 61.1217Z" fill="#5B3429"/>
<path d="M100.655 45.632L109.635 43.7481C114.856 42.7015 119.032 44.1667 119.868 48.9811C120.912 53.7955 117.779 57.1446 112.35 58.1913L110.261 58.6099L111.306 64.0523L104.623 65.5175L100.655 45.632ZM111.097 53.7955C112.767 53.3769 113.811 52.5396 113.394 51.0743C113.185 49.6091 111.932 49.1904 110.053 49.3998L108.173 49.8184L109.008 54.2142L111.097 53.7955Z" fill="#5B3429"/>
<path d="M64.1101 88.3334C62.8571 82.2631 66.6161 77.0301 72.4633 75.7741C76.8487 74.9368 80.1899 76.4021 82.487 79.1233L77.684 83.519C76.6398 82.2631 75.3869 81.4258 73.5074 81.8444C71.2103 82.2631 70.1661 84.5656 70.7926 86.8682C71.4191 89.38 73.2986 90.8453 75.3869 90.4266C77.2663 90.008 78.1016 88.752 78.5193 87.0775L84.5753 88.9614C83.5312 92.3105 81.2341 95.241 76.2222 96.2876C71.0015 97.5435 65.3631 94.4037 64.1101 88.3334Z" fill="#5B3429"/>
<path d="M90.6314 85.8216L80.6077 74.5182L87.9167 73.053L92.7197 78.914L94.808 71.797L102.117 70.3318L97.3139 84.5656L98.7757 91.6826L92.0932 93.1478L90.6314 85.8216Z" fill="#5B3429"/>
<path d="M101.908 78.7048L111.723 76.6116L112.768 81.8446L102.953 83.9378L101.908 78.7048Z" fill="#5B3429"/>
<path d="M47.4041 116.383C46.1511 110.312 49.91 105.079 55.7572 103.823C60.1426 102.986 63.4839 104.451 65.781 107.172L60.9779 111.568C59.9338 110.312 58.6808 109.475 56.8013 109.894C54.5042 110.312 53.4601 112.615 54.0866 114.917C54.7131 117.429 56.5925 118.894 58.6808 118.476C60.5603 118.057 61.3956 116.801 61.8132 115.127L67.8693 117.011C66.8251 120.36 64.528 123.29 59.7249 124.337C54.2954 125.593 48.657 122.453 47.4041 116.383Z" fill="#5B3429"/>
<path d="M66.1987 101.939L72.8812 100.474L75.8048 114.708L84.9933 112.824L86.2463 118.476L70.3753 121.825L66.1987 101.939Z" fill="#5B3429"/>
<path d="M83.5312 98.3809L100.446 94.8224L101.491 100.265L91.0491 102.358L91.4667 104.451L101.073 102.358L102.117 107.172L92.5109 109.266L92.9285 111.359L103.37 109.266L104.414 114.708L87.7078 118.266L83.5312 98.3809Z" fill="#5B3429"/>
<path d="M102.326 94.6132L109.844 93.148C117.779 91.4734 122.373 94.6132 123.626 100.474C124.879 106.335 121.747 111.359 113.603 113.034L106.502 114.289L102.326 94.6132ZM112.976 106.963C115.9 106.335 117.779 104.661 117.153 101.73C116.526 98.7997 114.438 97.9624 111.306 98.5903L110.261 98.7997L111.932 106.963H112.976Z" fill="#5B3429"/>
<path d="M97.7316 213.089L110.261 215.601C113.394 216.229 115.273 217.276 116.317 218.95C116.944 219.997 117.361 221.253 116.944 222.718C116.526 225.439 114.438 226.695 111.932 227.114C114.647 228.579 116.317 230.463 115.691 233.603C115.064 237.161 111.514 239.254 105.876 238.208L93.3462 235.696L97.7316 213.089ZM105.458 232.137C107.129 232.556 107.964 231.928 108.173 230.881C108.382 229.835 107.755 228.998 106.085 228.788L102.326 227.951L101.699 231.3L105.458 232.137ZM106.502 223.974C108.173 224.183 109.008 223.974 109.217 222.927C109.426 221.881 108.799 221.253 107.129 220.834L103.788 220.206L103.161 223.346L106.502 223.974Z" fill="#5B3429"/>
<path d="M126.132 216.438L133.65 215.81L144.927 238.208L136.574 238.836L135.112 235.905L127.385 236.533L126.341 239.673L118.197 240.301L126.132 216.438ZM133.024 230.672L130.518 225.23L128.847 230.881L133.024 230.672Z" fill="#5B3429"/>
<path d="M141.795 215.392L148.477 212.88L159.545 219.578L155.995 210.159L163.095 207.437L171.031 228.997L164.557 231.3L152.863 224.392L156.622 234.231L149.521 236.952L141.795 215.392Z" fill="#5B3429"/>
<path d="M169.778 202.414L175.834 197.809L197.343 210.577L190.66 215.601L187.946 213.926L181.472 218.741L182.307 221.881L175.834 226.695L169.778 202.414ZM183.143 210.577L178.131 207.437L179.801 213.089L183.143 210.577Z" fill="#5B3429"/>
<path d="M182.516 192.994L186.901 187.342L199.849 186.924L191.913 180.854L196.507 174.783L214.675 188.598L210.499 194.041L196.925 194.459L205.278 200.948L200.684 207.019L182.516 192.994Z" fill="#5B3429"/>
<path d="M199.431 167.038L202.146 159.921L227.205 159.293L224.282 167.038H220.94L218.017 174.574L220.523 176.876L217.599 184.621L199.431 167.038ZM215.093 166.829H209.246L213.631 170.806L215.093 166.829Z" fill="#5B3429"/>
<path d="M224.073 156.363L219.688 151.758C221.776 149.455 223.029 146.734 223.238 144.013C223.447 142.548 223.029 141.92 222.402 141.92C221.776 141.92 221.358 142.548 220.523 144.85C218.852 149.874 216.973 154.27 212.17 153.642C207.784 153.223 204.861 149.455 205.487 143.176C205.905 138.78 207.367 135.64 209.664 133.128L214.467 137.315C212.587 139.199 211.752 141.711 211.543 144.013C211.334 145.06 211.752 145.688 212.379 145.688C213.005 145.688 213.423 145.269 214.258 142.757C215.929 137.106 218.017 133.338 222.611 133.756C227.414 134.384 229.92 138.571 229.294 144.641C228.667 149.874 226.788 153.851 224.073 156.363Z" fill="#5B3429"/>
<path d="M211.335 132.082L206.532 132.5L205.905 124.128L210.708 123.709L221.776 125.174L221.985 128.942L211.335 132.082ZM223.447 130.826L223.029 123.29L228.876 122.872L229.294 130.407L223.447 130.826Z" fill="#5B3429"/>
<path d="M55.7574 192.994L4.80322 249.93L68.7048 234.021" fill="#FFFDE9"/>
<path d="M55.7574 192.994L4.80322 249.93L68.7048 234.021" stroke="#5B3429" stroke-width="2.19844" stroke-miterlimit="10"/>
<path d="M155.786 27.4211L165.81 1.46521C205.905 12.7686 242.032 41.2363 244.538 66.5641L221.776 81.6353" fill="#FFFDE9"/>
<path d="M155.786 27.4211L165.81 1.46521C205.905 12.7686 242.032 41.2363 244.538 66.5641L221.776 81.6353" stroke="#5B3429" stroke-width="1.72219" stroke-miterlimit="10"/>
<path d="M170.822 11.9313L173.745 12.9779L173.328 19.8855L177.504 14.6525L180.428 15.6991L174.163 32.0261L171.448 30.9795L175.207 21.1414L170.822 26.5838L171.239 19.4668L167.48 29.3049L164.766 28.2583L170.822 11.9313Z" fill="#5B3429"/>
<path d="M176.669 29.0956L176.878 28.6769C178.131 25.9557 179.801 25.3278 181.472 26.1651C182.099 26.3744 182.516 26.793 182.934 27.421L183.352 26.793C183.978 25.5371 183.769 24.6998 182.516 24.0719C181.89 23.6532 181.054 23.6532 180.219 23.6532L181.472 21.1414C182.516 21.1414 183.143 21.3507 184.187 21.7693C186.693 23.0252 187.319 25.1185 185.857 27.8396L181.89 35.7939L179.175 34.5379L179.801 33.282C178.757 34.1193 177.922 34.1193 177.087 33.7006C176.043 33.0727 175.625 31.3981 176.669 29.0956ZM180.846 31.3981L181.89 29.3049C181.681 29.0956 181.472 28.6769 181.263 28.6769C180.637 28.4676 180.219 28.6769 179.593 29.9329L179.384 30.3515C178.757 31.6074 178.966 32.0261 179.384 32.2354C180.01 32.2354 180.637 32.2354 180.846 31.3981Z" fill="#5B3429"/>
<path d="M186.066 31.1888L186.693 30.1422C189.199 25.9558 191.078 25.3278 192.331 26.1651C193.375 26.793 193.375 28.049 193.375 28.8863L196.299 23.8625L198.805 25.3278L189.825 40.3989L187.319 38.9337L188.155 37.4684C187.319 37.8871 186.275 38.515 185.231 37.8871C183.769 37.2591 183.56 35.1659 186.066 31.1888ZM190.661 33.7007L191.078 32.8634C192.331 30.7702 192.54 29.5142 191.914 29.0956C191.287 28.6769 190.243 29.7235 188.99 31.6074L188.572 32.4447C187.319 34.5379 186.902 35.7939 187.528 36.2125C188.363 36.6311 189.408 35.7939 190.661 33.7007Z" fill="#5B3429"/>
<path d="M194.419 36.0033L194.837 35.3753C197.343 31.8169 200.267 31.1889 201.937 32.4448C203.817 33.7008 203.608 36.6313 201.102 40.1897L200.267 41.4456L196.299 38.5152C195.255 40.399 195.464 41.4457 196.299 42.0736C196.925 42.4923 197.761 42.7016 198.805 42.7016L197.343 45.0041C196.09 45.0041 195.255 44.7948 194.419 44.1668C192.122 42.4923 191.913 39.3524 194.419 36.0033ZM199.222 37.8872C200.475 36.0033 200.893 34.9567 200.267 34.538C199.64 34.1194 198.805 34.7474 197.343 36.6313L199.222 37.8872Z" fill="#5B3429"/>
<path d="M209.455 38.5151L211.543 40.6084L207.158 46.6787L213.214 42.0736L214.884 43.7482L210.499 50.0278L216.346 45.2134L218.435 47.3066L207.575 55.4702L205.487 53.377L209.664 47.3066L203.817 51.9117L201.728 49.8185L209.455 38.5151Z" fill="#5B3429"/>
<path d="M219.897 48.5625L221.776 50.865L211.752 59.8658L209.873 57.7726L219.897 48.5625ZM223.029 45.8413L225.117 48.1438L223.029 50.0277L220.941 47.7252L223.029 45.8413Z" fill="#5B3429"/>
<path d="M214.676 59.6566L221.358 54.2142L220.941 53.5863L222.82 52.121L223.238 52.749L225.953 50.6558L227.832 52.9583L225.117 55.0515L226.161 56.3074L224.282 57.7727L223.447 56.5168L217.391 61.3311C216.973 61.7498 216.973 62.1684 217.182 62.5871C217.391 62.7964 217.599 63.0057 217.808 63.0057L215.929 64.471C215.511 64.2616 214.885 63.843 214.467 63.4244C213.632 62.3778 213.214 60.9125 214.676 59.6566Z" fill="#5B3429"/>
<path d="M230.755 55.2607L232.426 57.7726L227.623 61.1217C228.667 60.9124 229.92 61.1217 230.547 61.959C231.591 63.4243 230.755 64.8895 229.085 66.1455L220.732 72.0065L219.061 69.4946L226.788 64.0522C227.623 63.4243 227.832 62.7963 227.414 62.3777C226.997 61.959 226.37 61.959 225.535 62.3777L217.808 67.82L216.137 65.3082L230.755 55.2607Z" fill="#5B3429"/>
</svg>
